<?xml version="1.0" encoding="utf-8" standalone="no"?>
<!DOCTYPE svg PUBLIC "-//W3C//DTD SVG 1.1//EN"
  "http://www.w3.org/Graphics/SVG/1.1/DTD/svg11.dtd">
<svg xmlns:xlink="http://www.w3.org/1999/xlink" width="869.097986pt" height="218.357597pt" viewBox="0 0 869.097986 218.357597" xmlns="http://www.w3.org/2000/svg" version="1.1">
 <metadata>
  <rdf:RDF xmlns:dc="http://purl.org/dc/elements/1.1/" xmlns:cc="http://creativecommons.org/ns#" xmlns:rdf="http://www.w3.org/1999/02/22-rdf-syntax-ns#">
   <cc:Work>
    <dc:type rdf:resource="http://purl.org/dc/dcmitype/StillImage"/>
    <dc:date>2026-05-03T19:01:53.274190</dc:date>
    <dc:format>image/svg+xml</dc:format>
    <dc:creator>
     <cc:Agent>
      <dc:title>Matplotlib v3.10.8, https://matplotlib.org/</dc:title>
     </cc:Agent>
    </dc:creator>
   </cc:Work>
  </rdf:RDF>
 </metadata>
 <defs>
  <style type="text/css">*{stroke-linejoin: round; stroke-linecap: butt}</style>
 </defs>
 <g id="figure_1">
  <g id="patch_1">
   <path d="M 0 218.357597 
L 869.097986 218.357597 
L 869.097986 0 
L 0 0 
z
" style="fill: #ffffff"/>
  </g>
  <g id="axes_1">
   <g id="line2d_1">
    <path d="M 64.609196 44.2832 
L 857.262586 44.2832 
" clip-path="url(#p11dd4e6e53)" style="fill: none; stroke: #000000; stroke-width: 2; stroke-linecap: round"/>
   </g>
   <g id="line2d_2">
    <path d="M 64.609196 90.637199 
L 857.262586 90.637199 
" clip-path="url(#p11dd4e6e53)" style="fill: none; stroke: #000000; stroke-width: 2; stroke-linecap: round"/>
   </g>
   <g id="line2d_3">
    <path d="M 64.609196 136.991198 
L 857.262586 136.991198 
" clip-path="url(#p11dd4e6e53)" style="fill: none; stroke: #000000; stroke-width: 2; stroke-linecap: round"/>
   </g>
   <g id="line2d_4">
    <path d="M 64.609196 183.345198 
L 857.262586 183.345198 
" clip-path="url(#p11dd4e6e53)" style="fill: none; stroke: #000000; stroke-width: 2; stroke-linecap: round"/>
   </g>
   <g id="patch_2">
    <path d="M 59.973797 21.1062 
L -1098.876188 21.1062 
L -1098.876188 252.876197 
L 59.973797 252.876197 
z
" clip-path="url(#p11dd4e6e53)" style="fill: #ffffff; stroke: #ffffff; stroke-width: 1.5; stroke-linejoin: miter"/>
   </g>
   <g id="line2d_5">
    <path d="M 89.640356 44.2832 
L 89.640356 183.345198 
" clip-path="url(#p11dd4e6e53)" style="fill: none; stroke: #002d9c; stroke-width: 2; stroke-linecap: round"/>
   </g>
   <g id="line2d_6">
    <path d="M 135.994356 90.637199 
L 135.994356 136.991198 
" clip-path="url(#p11dd4e6e53)" style="fill: none; stroke: #002d9c; stroke-width: 2; stroke-linecap: round"/>
   </g>
   <g id="line2d_7">
    <path d="M 205.525355 183.345198 
L 205.525355 136.991198 
" clip-path="url(#p11dd4e6e53)" style="fill: none; stroke: #33b1ff; stroke-width: 2; stroke-linecap: round"/>
   </g>
   <g id="line2d_8">
    <path d="M 205.525355 183.345198 
L 205.525355 136.991198 
" clip-path="url(#p11dd4e6e53)" style="fill: none; stroke: #33b1ff; stroke-width: 2; stroke-linecap: round"/>
   </g>
   <g id="line2d_9">
    <path d="M 344.587353 183.345198 
L 344.587353 90.637199 
" clip-path="url(#p11dd4e6e53)" style="fill: none; stroke: #33b1ff; stroke-width: 2; stroke-linecap: round"/>
   </g>
   <g id="line2d_10">
    <path d="M 344.587353 183.345198 
L 344.587353 90.637199 
" clip-path="url(#p11dd4e6e53)" style="fill: none; stroke: #33b1ff; stroke-width: 2; stroke-linecap: round"/>
   </g>
   <g id="line2d_11">
    <path d="M 437.295352 136.991198 
L 437.295352 90.637199 
" clip-path="url(#p11dd4e6e53)" style="fill: none; stroke: #33b1ff; stroke-width: 2; stroke-linecap: round"/>
   </g>
   <g id="line2d_12">
    <path d="M 437.295352 136.991198 
L 437.295352 90.637199 
" clip-path="url(#p11dd4e6e53)" style="fill: none; stroke: #33b1ff; stroke-width: 2; stroke-linecap: round"/>
   </g>
   <g id="line2d_13">
    <path d="M 530.00335 183.345198 
L 530.00335 44.2832 
" clip-path="url(#p11dd4e6e53)" style="fill: none; stroke: #33b1ff; stroke-width: 2; stroke-linecap: round"/>
   </g>
   <g id="line2d_14">
    <path d="M 530.00335 183.345198 
L 530.00335 44.2832 
" clip-path="url(#p11dd4e6e53)" style="fill: none; stroke: #33b1ff; stroke-width: 2; stroke-linecap: round"/>
   </g>
   <g id="line2d_15">
    <path d="M 669.065348 136.991198 
L 669.065348 44.2832 
" clip-path="url(#p11dd4e6e53)" style="fill: none; stroke: #33b1ff; stroke-width: 2; stroke-linecap: round"/>
   </g>
   <g id="line2d_16">
    <path d="M 669.065348 136.991198 
L 669.065348 44.2832 
" clip-path="url(#p11dd4e6e53)" style="fill: none; stroke: #33b1ff; stroke-width: 2; stroke-linecap: round"/>
   </g>
   <g id="line2d_17">
    <path d="M 761.773347 90.637199 
L 761.773347 44.2832 
" clip-path="url(#p11dd4e6e53)" style="fill: none; stroke: #33b1ff; stroke-width: 2; stroke-linecap: round"/>
   </g>
   <g id="line2d_18">
    <path d="M 761.773347 90.637199 
L 761.773347 44.2832 
" clip-path="url(#p11dd4e6e53)" style="fill: none; stroke: #33b1ff; stroke-width: 2; stroke-linecap: round"/>
   </g>
   <g id="line2d_19">
    <path d="M 83.614336 50.309219 
L 95.666376 38.25718 
" clip-path="url(#p11dd4e6e53)" style="fill: none; stroke: #002d9c; stroke-width: 2; stroke-linecap: round"/>
   </g>
   <g id="line2d_20">
    <path d="M 83.614336 38.25718 
L 95.666376 50.309219 
" clip-path="url(#p11dd4e6e53)" style="fill: none; stroke: #002d9c; stroke-width: 2; stroke-linecap: round"/>
   </g>
   <g id="line2d_21">
    <path d="M 83.614336 189.371218 
L 95.666376 177.319178 
" clip-path="url(#p11dd4e6e53)" style="fill: none; stroke: #002d9c; stroke-width: 2; stroke-linecap: round"/>
   </g>
   <g id="line2d_22">
    <path d="M 83.614336 177.319178 
L 95.666376 189.371218 
" clip-path="url(#p11dd4e6e53)" style="fill: none; stroke: #002d9c; stroke-width: 2; stroke-linecap: round"/>
   </g>
   <g id="line2d_23">
    <path d="M 129.968336 96.663219 
L 142.020375 84.611179 
" clip-path="url(#p11dd4e6e53)" style="fill: none; stroke: #002d9c; stroke-width: 2; stroke-linecap: round"/>
   </g>
   <g id="line2d_24">
    <path d="M 129.968336 84.611179 
L 142.020375 96.663219 
" clip-path="url(#p11dd4e6e53)" style="fill: none; stroke: #002d9c; stroke-width: 2; stroke-linecap: round"/>
   </g>
   <g id="line2d_25">
    <path d="M 129.968336 143.017218 
L 142.020375 130.965178 
" clip-path="url(#p11dd4e6e53)" style="fill: none; stroke: #002d9c; stroke-width: 2; stroke-linecap: round"/>
   </g>
   <g id="line2d_26">
    <path d="M 129.968336 130.965178 
L 142.020375 143.017218 
" clip-path="url(#p11dd4e6e53)" style="fill: none; stroke: #002d9c; stroke-width: 2; stroke-linecap: round"/>
   </g>
   <g id="patch_3">
    <path d="M 120.929306 198.410247 
L 151.059405 198.410247 
L 151.059405 168.280148 
L 120.929306 168.280148 
z
" clip-path="url(#p11dd4e6e53)" style="fill: #fa4d56; stroke: #fa4d56; stroke-width: 1.5; stroke-linejoin: miter"/>
   </g>
   <g id="patch_4">
    <path d="M 205.525355 187.864713 
C 206.723944 187.864713 207.873604 187.388508 208.721134 186.540977 
C 209.568665 185.693447 210.04487 184.543787 210.04487 183.345198 
C 210.04487 182.146608 209.568665 180.996949 208.721134 180.149418 
C 207.873604 179.301887 206.723944 178.825683 205.525355 178.825683 
C 204.326765 178.825683 203.177106 179.301887 202.329575 180.149418 
C 201.482044 180.996949 201.00584 182.146608 201.00584 183.345198 
C 201.00584 184.543787 201.482044 185.693447 202.329575 186.540977 
C 203.177106 187.388508 204.326765 187.864713 205.525355 187.864713 
z
" clip-path="url(#p11dd4e6e53)" style="fill: #33b1ff; stroke: #33b1ff; stroke-width: 1.5; stroke-linejoin: miter"/>
   </g>
   <g id="patch_5">
    <path d="M 205.525355 141.510713 
C 206.723944 141.510713 207.873604 141.034509 208.721134 140.186978 
C 209.568665 139.339447 210.04487 138.189788 210.04487 136.991198 
C 210.04487 135.792609 209.568665 134.642949 208.721134 133.795419 
C 207.873604 132.947888 206.723944 132.471683 205.525355 132.471683 
C 204.326765 132.471683 203.177106 132.947888 202.329575 133.795419 
C 201.482044 134.642949 201.00584 135.792609 201.00584 136.991198 
C 201.00584 138.189788 201.482044 139.339447 202.329575 140.186978 
C 203.177106 141.034509 204.326765 141.510713 205.525355 141.510713 
z
" clip-path="url(#p11dd4e6e53)" style="fill: #33b1ff; stroke: #33b1ff; stroke-width: 1.5; stroke-linejoin: miter"/>
   </g>
   <g id="patch_6">
    <path d="M 259.991304 152.056248 
L 290.121403 152.056248 
L 290.121403 121.926148 
L 259.991304 121.926148 
z
" clip-path="url(#p11dd4e6e53)" style="fill: #fa4d56; stroke: #fa4d56; stroke-width: 1.5; stroke-linejoin: miter"/>
   </g>
   <g id="patch_7">
    <path d="M 344.587353 187.864713 
C 345.785942 187.864713 346.935602 187.388508 347.783132 186.540977 
C 348.630663 185.693447 349.106868 184.543787 349.106868 183.345198 
C 349.106868 182.146608 348.630663 180.996949 347.783132 180.149418 
C 346.935602 179.301887 345.785942 178.825683 344.587353 178.825683 
C 343.388763 178.825683 342.239104 179.301887 341.391573 180.149418 
C 340.544042 180.996949 340.067838 182.146608 340.067838 183.345198 
C 340.067838 184.543787 340.544042 185.693447 341.391573 186.540977 
C 342.239104 187.388508 343.388763 187.864713 344.587353 187.864713 
z
" clip-path="url(#p11dd4e6e53)" style="fill: #33b1ff; stroke: #33b1ff; stroke-width: 1.5; stroke-linejoin: miter"/>
   </g>
   <g id="patch_8">
    <path d="M 344.587353 95.156714 
C 345.785942 95.156714 346.935602 94.680509 347.783132 93.832979 
C 348.630663 92.985448 349.106868 91.835788 349.106868 90.637199 
C 349.106868 89.43861 348.630663 88.28895 347.783132 87.441419 
C 346.935602 86.593889 345.785942 86.117684 344.587353 86.117684 
C 343.388763 86.117684 342.239104 86.593889 341.391573 87.441419 
C 340.544042 88.28895 340.067838 89.43861 340.067838 90.637199 
C 340.067838 91.835788 340.544042 92.985448 341.391573 93.832979 
C 342.239104 94.680509 343.388763 95.156714 344.587353 95.156714 
z
" clip-path="url(#p11dd4e6e53)" style="fill: #33b1ff; stroke: #33b1ff; stroke-width: 1.5; stroke-linejoin: miter"/>
   </g>
   <g id="patch_9">
    <path d="M 437.295352 141.510713 
C 438.493941 141.510713 439.643601 141.034509 440.491131 140.186978 
C 441.338662 139.339447 441.814866 138.189788 441.814866 136.991198 
C 441.814866 135.792609 441.338662 134.642949 440.491131 133.795419 
C 439.643601 132.947888 438.493941 132.471683 437.295352 132.471683 
C 436.096762 132.471683 434.947103 132.947888 434.099572 133.795419 
C 433.252041 134.642949 432.775837 135.792609 432.775837 136.991198 
C 432.775837 138.189788 433.252041 139.339447 434.099572 140.186978 
C 434.947103 141.034509 436.096762 141.510713 437.295352 141.510713 
z
" clip-path="url(#p11dd4e6e53)" style="fill: #33b1ff; stroke: #33b1ff; stroke-width: 1.5; stroke-linejoin: miter"/>
   </g>
   <g id="patch_10">
    <path d="M 437.295352 95.156714 
C 438.493941 95.156714 439.643601 94.680509 440.491131 93.832979 
C 441.338662 92.985448 441.814866 91.835788 441.814866 90.637199 
C 441.814866 89.43861 441.338662 88.28895 440.491131 87.441419 
C 439.643601 86.593889 438.493941 86.117684 437.295352 86.117684 
C 436.096762 86.117684 434.947103 86.593889 434.099572 87.441419 
C 433.252041 88.28895 432.775837 89.43861 432.775837 90.637199 
C 432.775837 91.835788 433.252041 92.985448 434.099572 93.832979 
C 434.947103 94.680509 436.096762 95.156714 437.295352 95.156714 
z
" clip-path="url(#p11dd4e6e53)" style="fill: #33b1ff; stroke: #33b1ff; stroke-width: 1.5; stroke-linejoin: miter"/>
   </g>
   <g id="patch_11">
    <path d="M 530.00335 187.864713 
C 531.20194 187.864713 532.351599 187.388508 533.19913 186.540977 
C 534.046661 185.693447 534.522865 184.543787 534.522865 183.345198 
C 534.522865 182.146608 534.046661 180.996949 533.19913 180.149418 
C 532.351599 179.301887 531.20194 178.825683 530.00335 178.825683 
C 528.804761 178.825683 527.655101 179.301887 526.807571 180.149418 
C 525.96004 180.996949 525.483835 182.146608 525.483835 183.345198 
C 525.483835 184.543787 525.96004 185.693447 526.807571 186.540977 
C 527.655101 187.388508 528.804761 187.864713 530.00335 187.864713 
z
" clip-path="url(#p11dd4e6e53)" style="fill: #33b1ff; stroke: #33b1ff; stroke-width: 1.5; stroke-linejoin: miter"/>
   </g>
   <g id="patch_12">
    <path d="M 530.00335 48.802714 
C 531.20194 48.802714 532.351599 48.32651 533.19913 47.478979 
C 534.046661 46.631448 534.522865 45.481789 534.522865 44.2832 
C 534.522865 43.08461 534.046661 41.934951 533.19913 41.08742 
C 532.351599 40.239889 531.20194 39.763685 530.00335 39.763685 
C 528.804761 39.763685 527.655101 40.239889 526.807571 41.08742 
C 525.96004 41.934951 525.483835 43.08461 525.483835 44.2832 
C 525.483835 45.481789 525.96004 46.631448 526.807571 47.478979 
C 527.655101 48.32651 528.804761 48.802714 530.00335 48.802714 
z
" clip-path="url(#p11dd4e6e53)" style="fill: #33b1ff; stroke: #33b1ff; stroke-width: 1.5; stroke-linejoin: miter"/>
   </g>
   <g id="patch_13">
    <path d="M 584.4693 105.702249 
L 614.599399 105.702249 
L 614.599399 75.572149 
L 584.4693 75.572149 
z
" clip-path="url(#p11dd4e6e53)" style="fill: #fa4d56; stroke: #fa4d56; stroke-width: 1.5; stroke-linejoin: miter"/>
   </g>
   <g id="patch_14">
    <path d="M 669.065348 141.510713 
C 670.263938 141.510713 671.413597 141.034509 672.261128 140.186978 
C 673.108659 139.339447 673.584863 138.189788 673.584863 136.991198 
C 673.584863 135.792609 673.108659 134.642949 672.261128 133.795419 
C 671.413597 132.947888 670.263938 132.471683 669.065348 132.471683 
C 667.866759 132.471683 666.717099 132.947888 665.869569 133.795419 
C 665.022038 134.642949 664.545833 135.792609 664.545833 136.991198 
C 664.545833 138.189788 665.022038 139.339447 665.869569 140.186978 
C 666.717099 141.034509 667.866759 141.510713 669.065348 141.510713 
z
" clip-path="url(#p11dd4e6e53)" style="fill: #33b1ff; stroke: #33b1ff; stroke-width: 1.5; stroke-linejoin: miter"/>
   </g>
   <g id="patch_15">
    <path d="M 669.065348 48.802714 
C 670.263938 48.802714 671.413597 48.32651 672.261128 47.478979 
C 673.108659 46.631448 673.584863 45.481789 673.584863 44.2832 
C 673.584863 43.08461 673.108659 41.934951 672.261128 41.08742 
C 671.413597 40.239889 670.263938 39.763685 669.065348 39.763685 
C 667.866759 39.763685 666.717099 40.239889 665.869569 41.08742 
C 665.022038 41.934951 664.545833 43.08461 664.545833 44.2832 
C 664.545833 45.481789 665.022038 46.631448 665.869569 47.478979 
C 666.717099 48.32651 667.866759 48.802714 669.065348 48.802714 
z
" clip-path="url(#p11dd4e6e53)" style="fill: #33b1ff; stroke: #33b1ff; stroke-width: 1.5; stroke-linejoin: miter"/>
   </g>
   <g id="patch_16">
    <path d="M 761.773347 95.156714 
C 762.971937 95.156714 764.121596 94.680509 764.969127 93.832979 
C 765.816658 92.985448 766.292862 91.835788 766.292862 90.637199 
C 766.292862 89.43861 765.816658 88.28895 764.969127 87.441419 
C 764.121596 86.593889 762.971937 86.117684 761.773347 86.117684 
C 760.574758 86.117684 759.425098 86.593889 758.577568 87.441419 
C 757.730037 88.28895 757.253832 89.43861 757.253832 90.637199 
C 757.253832 91.835788 757.730037 92.985448 758.577568 93.832979 
C 759.425098 94.680509 760.574758 95.156714 761.773347 95.156714 
z
" clip-path="url(#p11dd4e6e53)" style="fill: #33b1ff; stroke: #33b1ff; stroke-width: 1.5; stroke-linejoin: miter"/>
   </g>
   <g id="patch_17">
    <path d="M 761.773347 48.802714 
C 762.971937 48.802714 764.121596 48.32651 764.969127 47.478979 
C 765.816658 46.631448 766.292862 45.481789 766.292862 44.2832 
C 766.292862 43.08461 765.816658 41.934951 764.969127 41.08742 
C 764.121596 40.239889 762.971937 39.763685 761.773347 39.763685 
C 760.574758 39.763685 759.425098 40.239889 758.577568 41.08742 
C 757.730037 41.934951 757.253832 43.08461 757.253832 44.2832 
C 757.253832 45.481789 757.730037 46.631448 758.577568 47.478979 
C 759.425098 48.32651 760.574758 48.802714 761.773347 48.802714 
z
" clip-path="url(#p11dd4e6e53)" style="fill: #33b1ff; stroke: #33b1ff; stroke-width: 1.5; stroke-linejoin: miter"/>
   </g>
   <g id="patch_18">
    <path d="M 816.239296 59.348249 
L 846.369396 59.348249 
L 846.369396 29.21815 
L 816.239296 29.21815 
z
" clip-path="url(#p11dd4e6e53)" style="fill: #fa4d56; stroke: #fa4d56; stroke-width: 1.5; stroke-linejoin: miter"/>
   </g>
   <g id="text_1">
    <g clip-path="url(#p11dd4e6e53)">
     <!-- ${q}_{0}$ -->
     <g transform="translate(37.300897 48.301266) scale(0.1625 -0.1625)">
      <defs>
       <path id="DejaVuSans-Oblique-71" d="M 2669 525 
Q 2438 222 2123 65 
Q 1809 -91 1428 -91 
Q 897 -91 595 267 
Q 294 625 294 1253 
Q 294 1759 480 2231 
Q 666 2703 1013 3078 
Q 1238 3322 1530 3453 
Q 1822 3584 2144 3584 
Q 2531 3584 2781 3431 
Q 3031 3278 3144 2969 
L 3244 3494 
L 3822 3494 
L 2888 -1319 
L 2309 -1319 
L 2669 525 
z
M 891 1338 
Q 891 875 1084 633 
Q 1278 391 1644 391 
Q 2188 391 2572 911 
Q 2956 1431 2956 2175 
Q 2956 2625 2757 2864 
Q 2559 3103 2188 3103 
Q 1916 3103 1684 2976 
Q 1453 2850 1281 2606 
Q 1100 2350 995 2006 
Q 891 1663 891 1338 
z
" transform="scale(0.015625)"/>
       <path id="DejaVuSans-30" d="M 2034 4250 
Q 1547 4250 1301 3770 
Q 1056 3291 1056 2328 
Q 1056 1369 1301 889 
Q 1547 409 2034 409 
Q 2525 409 2770 889 
Q 3016 1369 3016 2328 
Q 3016 3291 2770 3770 
Q 2525 4250 2034 4250 
z
M 2034 4750 
Q 2819 4750 3233 4129 
Q 3647 3509 3647 2328 
Q 3647 1150 3233 529 
Q 2819 -91 2034 -91 
Q 1250 -91 836 529 
Q 422 1150 422 2328 
Q 422 3509 836 4129 
Q 1250 4750 2034 4750 
z
" transform="scale(0.015625)"/>
      </defs>
      <use xlink:href="#DejaVuSans-Oblique-71"/>
      <use xlink:href="#DejaVuSans-30" transform="translate(63.476562 -16.40625) scale(0.7)"/>
     </g>
    </g>
   </g>
   <g id="text_2">
    <g clip-path="url(#p11dd4e6e53)">
     <!-- ${q}_{1}$ -->
     <g transform="translate(37.300897 94.655265) scale(0.1625 -0.1625)">
      <defs>
       <path id="DejaVuSans-31" d="M 794 531 
L 1825 531 
L 1825 4091 
L 703 3866 
L 703 4441 
L 1819 4666 
L 2450 4666 
L 2450 531 
L 3481 531 
L 3481 0 
L 794 0 
L 794 531 
z
" transform="scale(0.015625)"/>
      </defs>
      <use xlink:href="#DejaVuSans-Oblique-71"/>
      <use xlink:href="#DejaVuSans-31" transform="translate(63.476562 -16.40625) scale(0.7)"/>
     </g>
    </g>
   </g>
   <g id="text_3">
    <g clip-path="url(#p11dd4e6e53)">
     <!-- ${q}_{2}$ -->
     <g transform="translate(37.300897 141.009265) scale(0.1625 -0.1625)">
      <defs>
       <path id="DejaVuSans-32" d="M 1228 531 
L 3431 531 
L 3431 0 
L 469 0 
L 469 531 
Q 828 903 1448 1529 
Q 2069 2156 2228 2338 
Q 2531 2678 2651 2914 
Q 2772 3150 2772 3378 
Q 2772 3750 2511 3984 
Q 2250 4219 1831 4219 
Q 1534 4219 1204 4116 
Q 875 4013 500 3803 
L 500 4441 
Q 881 4594 1212 4672 
Q 1544 4750 1819 4750 
Q 2544 4750 2975 4387 
Q 3406 4025 3406 3419 
Q 3406 3131 3298 2873 
Q 3191 2616 2906 2266 
Q 2828 2175 2409 1742 
Q 1991 1309 1228 531 
z
" transform="scale(0.015625)"/>
      </defs>
      <use xlink:href="#DejaVuSans-Oblique-71"/>
      <use xlink:href="#DejaVuSans-32" transform="translate(63.476562 -16.40625) scale(0.7)"/>
     </g>
    </g>
   </g>
   <g id="text_4">
    <g clip-path="url(#p11dd4e6e53)">
     <!-- ${q}_{3}$ -->
     <g transform="translate(37.300897 187.363264) scale(0.1625 -0.1625)">
      <defs>
       <path id="DejaVuSans-33" d="M 2597 2516 
Q 3050 2419 3304 2112 
Q 3559 1806 3559 1356 
Q 3559 666 3084 287 
Q 2609 -91 1734 -91 
Q 1441 -91 1130 -33 
Q 819 25 488 141 
L 488 750 
Q 750 597 1062 519 
Q 1375 441 1716 441 
Q 2309 441 2620 675 
Q 2931 909 2931 1356 
Q 2931 1769 2642 2001 
Q 2353 2234 1838 2234 
L 1294 2234 
L 1294 2753 
L 1863 2753 
Q 2328 2753 2575 2939 
Q 2822 3125 2822 3475 
Q 2822 3834 2567 4026 
Q 2313 4219 1838 4219 
Q 1578 4219 1281 4162 
Q 984 4106 628 3988 
L 628 4550 
Q 988 4650 1302 4700 
Q 1616 4750 1894 4750 
Q 2613 4750 3031 4423 
Q 3450 4097 3450 3541 
Q 3450 3153 3228 2886 
Q 3006 2619 2597 2516 
z
" transform="scale(0.015625)"/>
      </defs>
      <use xlink:href="#DejaVuSans-Oblique-71"/>
      <use xlink:href="#DejaVuSans-33" transform="translate(63.476562 -16.40625) scale(0.7)"/>
     </g>
    </g>
   </g>
   <g id="text_5">
    <g clip-path="url(#p11dd4e6e53)">
     <!-- H -->
     <g transform="translate(131.300137 186.705901) scale(0.13 -0.13)">
      <defs>
       <path id="ArialMT-48" d="M 513 0 
L 513 4581 
L 1119 4581 
L 1119 2700 
L 3500 2700 
L 3500 4581 
L 4106 4581 
L 4106 0 
L 3500 0 
L 3500 2159 
L 1119 2159 
L 1119 0 
L 513 0 
z
" transform="scale(0.015625)"/>
      </defs>
      <use xlink:href="#ArialMT-48"/>
     </g>
    </g>
   </g>
   <g id="text_6">
    <g clip-path="url(#p11dd4e6e53)">
     <!-- P ($-$$\pi$/2) -->
     <g transform="translate(212.590742 159.055098) scale(0.08 -0.08)">
      <defs>
       <path id="ArialMT-50" d="M 494 0 
L 494 4581 
L 2222 4581 
Q 2678 4581 2919 4538 
Q 3256 4481 3484 4323 
Q 3713 4166 3852 3881 
Q 3991 3597 3991 3256 
Q 3991 2672 3619 2267 
Q 3247 1863 2275 1863 
L 1100 1863 
L 1100 0 
L 494 0 
z
M 1100 2403 
L 2284 2403 
Q 2872 2403 3119 2622 
Q 3366 2841 3366 3238 
Q 3366 3525 3220 3729 
Q 3075 3934 2838 4000 
Q 2684 4041 2272 4041 
L 1100 4041 
L 1100 2403 
z
" transform="scale(0.015625)"/>
       <path id="ArialMT-20" transform="scale(0.015625)"/>
       <path id="ArialMT-28" d="M 1497 -1347 
Q 1031 -759 709 28 
Q 388 816 388 1659 
Q 388 2403 628 3084 
Q 909 3875 1497 4659 
L 1900 4659 
Q 1522 4009 1400 3731 
Q 1209 3300 1100 2831 
Q 966 2247 966 1656 
Q 966 153 1900 -1347 
L 1497 -1347 
z
" transform="scale(0.015625)"/>
       <path id="DejaVuSans-2212" d="M 678 2272 
L 4684 2272 
L 4684 1741 
L 678 1741 
L 678 2272 
z
" transform="scale(0.015625)"/>
       <path id="DejaVuSans-Oblique-3c0" d="M 584 3500 
L 3938 3500 
L 3825 2925 
L 3384 2925 
L 2966 775 
Q 2922 550 2981 450 
Q 3038 353 3209 353 
Q 3256 353 3325 363 
Q 3397 369 3419 372 
L 3338 -44 
Q 3222 -84 3103 -103 
Q 2981 -122 2866 -122 
Q 2491 -122 2388 81 
Q 2284 288 2391 838 
L 2797 2925 
L 1506 2925 
L 938 0 
L 350 0 
L 919 2925 
L 472 2925 
L 584 3500 
z
" transform="scale(0.015625)"/>
       <path id="ArialMT-2f" d="M 0 -78 
L 1328 4659 
L 1778 4659 
L 453 -78 
L 0 -78 
z
" transform="scale(0.015625)"/>
       <path id="ArialMT-32" d="M 3222 541 
L 3222 0 
L 194 0 
Q 188 203 259 391 
Q 375 700 629 1000 
Q 884 1300 1366 1694 
Q 2113 2306 2375 2664 
Q 2638 3022 2638 3341 
Q 2638 3675 2398 3904 
Q 2159 4134 1775 4134 
Q 1369 4134 1125 3890 
Q 881 3647 878 3216 
L 300 3275 
Q 359 3922 746 4261 
Q 1134 4600 1788 4600 
Q 2447 4600 2831 4234 
Q 3216 3869 3216 3328 
Q 3216 3053 3103 2787 
Q 2991 2522 2730 2228 
Q 2469 1934 1863 1422 
Q 1356 997 1212 845 
Q 1069 694 975 541 
L 3222 541 
z
" transform="scale(0.015625)"/>
       <path id="ArialMT-29" d="M 791 -1347 
L 388 -1347 
Q 1322 153 1322 1656 
Q 1322 2244 1188 2822 
Q 1081 3291 891 3722 
Q 769 4003 388 4659 
L 791 4659 
Q 1378 3875 1659 3084 
Q 1900 2403 1900 1659 
Q 1900 816 1576 28 
Q 1253 -759 791 -1347 
z
" transform="scale(0.015625)"/>
      </defs>
      <use xlink:href="#ArialMT-50" transform="translate(0 0.203125)"/>
      <use xlink:href="#ArialMT-20" transform="translate(66.699219 0.203125)"/>
      <use xlink:href="#ArialMT-28" transform="translate(94.482422 0.203125)"/>
      <use xlink:href="#DejaVuSans-2212" transform="translate(127.783203 0.203125)"/>
      <use xlink:href="#DejaVuSans-Oblique-3c0" transform="translate(211.572266 0.203125)"/>
      <use xlink:href="#ArialMT-2f" transform="translate(271.777344 0.203125)"/>
      <use xlink:href="#ArialMT-32" transform="translate(299.560547 0.203125)"/>
      <use xlink:href="#ArialMT-29" transform="translate(355.175781 0.203125)"/>
     </g>
    </g>
   </g>
   <g id="text_7">
    <g clip-path="url(#p11dd4e6e53)">
     <!-- H -->
     <g transform="translate(270.362135 140.351901) scale(0.13 -0.13)">
      <use xlink:href="#ArialMT-48"/>
     </g>
    </g>
   </g>
   <g id="text_8">
    <g clip-path="url(#p11dd4e6e53)">
     <!-- P ($-$$\pi$/4) -->
     <g transform="translate(351.65274 159.055098) scale(0.08 -0.08)">
      <defs>
       <path id="ArialMT-34" d="M 2069 0 
L 2069 1097 
L 81 1097 
L 81 1613 
L 2172 4581 
L 2631 4581 
L 2631 1613 
L 3250 1613 
L 3250 1097 
L 2631 1097 
L 2631 0 
L 2069 0 
z
M 2069 1613 
L 2069 3678 
L 634 1613 
L 2069 1613 
z
" transform="scale(0.015625)"/>
      </defs>
      <use xlink:href="#ArialMT-50" transform="translate(0 0.203125)"/>
      <use xlink:href="#ArialMT-20" transform="translate(66.699219 0.203125)"/>
      <use xlink:href="#ArialMT-28" transform="translate(94.482422 0.203125)"/>
      <use xlink:href="#DejaVuSans-2212" transform="translate(127.783203 0.203125)"/>
      <use xlink:href="#DejaVuSans-Oblique-3c0" transform="translate(211.572266 0.203125)"/>
      <use xlink:href="#ArialMT-2f" transform="translate(271.777344 0.203125)"/>
      <use xlink:href="#ArialMT-34" transform="translate(299.560547 0.203125)"/>
      <use xlink:href="#ArialMT-29" transform="translate(355.175781 0.203125)"/>
     </g>
    </g>
   </g>
   <g id="text_9">
    <g clip-path="url(#p11dd4e6e53)">
     <!-- P ($-$$\pi$/2) -->
     <g transform="translate(444.360739 112.701099) scale(0.08 -0.08)">
      <use xlink:href="#ArialMT-50" transform="translate(0 0.203125)"/>
      <use xlink:href="#ArialMT-20" transform="translate(66.699219 0.203125)"/>
      <use xlink:href="#ArialMT-28" transform="translate(94.482422 0.203125)"/>
      <use xlink:href="#DejaVuSans-2212" transform="translate(127.783203 0.203125)"/>
      <use xlink:href="#DejaVuSans-Oblique-3c0" transform="translate(211.572266 0.203125)"/>
      <use xlink:href="#ArialMT-2f" transform="translate(271.777344 0.203125)"/>
      <use xlink:href="#ArialMT-32" transform="translate(299.560547 0.203125)"/>
      <use xlink:href="#ArialMT-29" transform="translate(355.175781 0.203125)"/>
     </g>
    </g>
   </g>
   <g id="text_10">
    <g clip-path="url(#p11dd4e6e53)">
     <!-- P ($-$$\pi$/8) -->
     <g transform="translate(537.068737 159.055098) scale(0.08 -0.08)">
      <defs>
       <path id="ArialMT-38" d="M 1131 2484 
Q 781 2613 612 2850 
Q 444 3088 444 3419 
Q 444 3919 803 4259 
Q 1163 4600 1759 4600 
Q 2359 4600 2725 4251 
Q 3091 3903 3091 3403 
Q 3091 3084 2923 2848 
Q 2756 2613 2416 2484 
Q 2838 2347 3058 2040 
Q 3278 1734 3278 1309 
Q 3278 722 2862 322 
Q 2447 -78 1769 -78 
Q 1091 -78 675 323 
Q 259 725 259 1325 
Q 259 1772 486 2073 
Q 713 2375 1131 2484 
z
M 1019 3438 
Q 1019 3113 1228 2906 
Q 1438 2700 1772 2700 
Q 2097 2700 2305 2904 
Q 2513 3109 2513 3406 
Q 2513 3716 2298 3927 
Q 2084 4138 1766 4138 
Q 1444 4138 1231 3931 
Q 1019 3725 1019 3438 
z
M 838 1322 
Q 838 1081 952 856 
Q 1066 631 1291 507 
Q 1516 384 1775 384 
Q 2178 384 2440 643 
Q 2703 903 2703 1303 
Q 2703 1709 2433 1975 
Q 2163 2241 1756 2241 
Q 1359 2241 1098 1978 
Q 838 1716 838 1322 
z
" transform="scale(0.015625)"/>
      </defs>
      <use xlink:href="#ArialMT-50" transform="translate(0 0.203125)"/>
      <use xlink:href="#ArialMT-20" transform="translate(66.699219 0.203125)"/>
      <use xlink:href="#ArialMT-28" transform="translate(94.482422 0.203125)"/>
      <use xlink:href="#DejaVuSans-2212" transform="translate(127.783203 0.203125)"/>
      <use xlink:href="#DejaVuSans-Oblique-3c0" transform="translate(211.572266 0.203125)"/>
      <use xlink:href="#ArialMT-2f" transform="translate(271.777344 0.203125)"/>
      <use xlink:href="#ArialMT-38" transform="translate(299.560547 0.203125)"/>
      <use xlink:href="#ArialMT-29" transform="translate(355.175781 0.203125)"/>
     </g>
    </g>
   </g>
   <g id="text_11">
    <g clip-path="url(#p11dd4e6e53)">
     <!-- H -->
     <g transform="translate(594.840131 93.997902) scale(0.13 -0.13)">
      <use xlink:href="#ArialMT-48"/>
     </g>
    </g>
   </g>
   <g id="text_12">
    <g clip-path="url(#p11dd4e6e53)">
     <!-- P ($-$$\pi$/4) -->
     <g transform="translate(676.130736 112.701099) scale(0.08 -0.08)">
      <use xlink:href="#ArialMT-50" transform="translate(0 0.203125)"/>
      <use xlink:href="#ArialMT-20" transform="translate(66.699219 0.203125)"/>
      <use xlink:href="#ArialMT-28" transform="translate(94.482422 0.203125)"/>
      <use xlink:href="#DejaVuSans-2212" transform="translate(127.783203 0.203125)"/>
      <use xlink:href="#DejaVuSans-Oblique-3c0" transform="translate(211.572266 0.203125)"/>
      <use xlink:href="#ArialMT-2f" transform="translate(271.777344 0.203125)"/>
      <use xlink:href="#ArialMT-34" transform="translate(299.560547 0.203125)"/>
      <use xlink:href="#ArialMT-29" transform="translate(355.175781 0.203125)"/>
     </g>
    </g>
   </g>
   <g id="text_13">
    <g clip-path="url(#p11dd4e6e53)">
     <!-- P ($-$$\pi$/2) -->
     <g transform="translate(768.838734 66.347099) scale(0.08 -0.08)">
      <use xlink:href="#ArialMT-50" transform="translate(0 0.203125)"/>
      <use xlink:href="#ArialMT-20" transform="translate(66.699219 0.203125)"/>
      <use xlink:href="#ArialMT-28" transform="translate(94.482422 0.203125)"/>
      <use xlink:href="#DejaVuSans-2212" transform="translate(127.783203 0.203125)"/>
      <use xlink:href="#DejaVuSans-Oblique-3c0" transform="translate(211.572266 0.203125)"/>
      <use xlink:href="#ArialMT-2f" transform="translate(271.777344 0.203125)"/>
      <use xlink:href="#ArialMT-32" transform="translate(299.560547 0.203125)"/>
      <use xlink:href="#ArialMT-29" transform="translate(355.175781 0.203125)"/>
     </g>
    </g>
   </g>
   <g id="text_14">
    <g clip-path="url(#p11dd4e6e53)">
     <!-- H -->
     <g transform="translate(826.610128 47.643903) scale(0.13 -0.13)">
      <use xlink:href="#ArialMT-48"/>
     </g>
    </g>
   </g>
  </g>
 </g>
 <defs>
  <clipPath id="p11dd4e6e53">
   <rect x="7.2" y="7.2" width="854.697986" height="203.957597"/>
  </clipPath>
 </defs>
</svg>
