<?xml version="1.0" encoding="utf-8" standalone="no"?>
<!DOCTYPE svg PUBLIC "-//W3C//DTD SVG 1.1//EN"
  "http://www.w3.org/Graphics/SVG/1.1/DTD/svg11.dtd">
<svg xmlns:xlink="http://www.w3.org/1999/xlink" width="869.097986pt" height="218.357597pt" viewBox="0 0 869.097986 218.357597" xmlns="http://www.w3.org/2000/svg" version="1.1">
 <metadata>
  <rdf:RDF xmlns:dc="http://purl.org/dc/elements/1.1/" xmlns:cc="http://creativecommons.org/ns#" xmlns:rdf="http://www.w3.org/1999/02/22-rdf-syntax-ns#">
   <cc:Work>
    <dc:type rdf:resource="http://purl.org/dc/dcmitype/StillImage"/>
    <dc:date>2026-05-04T16:07:06.739080</dc:date>
    <dc:format>image/svg+xml</dc:format>
    <dc:creator>
     <cc:Agent>
      <dc:title>Matplotlib v3.10.8, https://matplotlib.org/</dc:title>
     </cc:Agent>
    </dc:creator>
   </cc:Work>
  </rdf:RDF>
 </metadata>
 <defs>
  <style type="text/css">*{stroke-linejoin: round; stroke-linecap: butt}</style>
 </defs>
 <g id="figure_1">
  <g id="patch_1">
   <path d="M 0 218.357597 
L 869.097986 218.357597 
L 869.097986 0 
L 0 0 
z
" style="fill: #ffffff"/>
  </g>
  <g id="axes_1">
   <g id="line2d_1">
    <path d="M 64.609196 44.2832 
L 857.262586 44.2832 
" clip-path="url(#p43a790f12c)" style="fill: none; stroke: #000000; stroke-width: 2; stroke-linecap: square"/>
   </g>
   <g id="line2d_2">
    <path d="M 64.609196 90.637199 
L 857.262586 90.637199 
" clip-path="url(#p43a790f12c)" style="fill: none; stroke: #000000; stroke-width: 2; stroke-linecap: square"/>
   </g>
   <g id="line2d_3">
    <path d="M 64.609196 136.991198 
L 857.262586 136.991198 
" clip-path="url(#p43a790f12c)" style="fill: none; stroke: #000000; stroke-width: 2; stroke-linecap: square"/>
   </g>
   <g id="line2d_4">
    <path d="M 64.609196 183.345198 
L 857.262586 183.345198 
" clip-path="url(#p43a790f12c)" style="fill: none; stroke: #000000; stroke-width: 2; stroke-linecap: square"/>
   </g>
   <g id="patch_2">
    <path d="M 59.973797 21.1062 
L -1098.876188 21.1062 
L -1098.876188 252.876197 
L 59.973797 252.876197 
z
" clip-path="url(#p43a790f12c)" style="fill: #ffffff; stroke: #ffffff; stroke-width: 1.5; stroke-linejoin: miter"/>
   </g>
   <g id="line2d_5">
    <path d="M 89.640356 44.2832 
L 89.640356 183.345198 
" clip-path="url(#p43a790f12c)" style="fill: none; stroke: #002d9c; stroke-width: 2; stroke-linecap: square"/>
   </g>
   <g id="line2d_6">
    <path d="M 135.994356 90.637199 
L 135.994356 136.991198 
" clip-path="url(#p43a790f12c)" style="fill: none; stroke: #002d9c; stroke-width: 2; stroke-linecap: square"/>
   </g>
   <g id="line2d_7">
    <path d="M 205.525355 183.345198 
L 205.525355 136.991198 
" clip-path="url(#p43a790f12c)" style="fill: none; stroke: #33b1ff; stroke-width: 2; stroke-linecap: square"/>
   </g>
   <g id="line2d_8">
    <path d="M 205.525355 183.345198 
L 205.525355 136.991198 
" clip-path="url(#p43a790f12c)" style="fill: none; stroke: #33b1ff; stroke-width: 2; stroke-linecap: square"/>
   </g>
   <g id="line2d_9">
    <path d="M 344.587353 183.345198 
L 344.587353 90.637199 
" clip-path="url(#p43a790f12c)" style="fill: none; stroke: #33b1ff; stroke-width: 2; stroke-linecap: square"/>
   </g>
   <g id="line2d_10">
    <path d="M 344.587353 183.345198 
L 344.587353 90.637199 
" clip-path="url(#p43a790f12c)" style="fill: none; stroke: #33b1ff; stroke-width: 2; stroke-linecap: square"/>
   </g>
   <g id="line2d_11">
    <path d="M 437.295352 136.991198 
L 437.295352 90.637199 
" clip-path="url(#p43a790f12c)" style="fill: none; stroke: #33b1ff; stroke-width: 2; stroke-linecap: square"/>
   </g>
   <g id="line2d_12">
    <path d="M 437.295352 136.991198 
L 437.295352 90.637199 
" clip-path="url(#p43a790f12c)" style="fill: none; stroke: #33b1ff; stroke-width: 2; stroke-linecap: square"/>
   </g>
   <g id="line2d_13">
    <path d="M 530.00335 183.345198 
L 530.00335 44.2832 
" clip-path="url(#p43a790f12c)" style="fill: none; stroke: #33b1ff; stroke-width: 2; stroke-linecap: square"/>
   </g>
   <g id="line2d_14">
    <path d="M 530.00335 183.345198 
L 530.00335 44.2832 
" clip-path="url(#p43a790f12c)" style="fill: none; stroke: #33b1ff; stroke-width: 2; stroke-linecap: square"/>
   </g>
   <g id="line2d_15">
    <path d="M 669.065348 136.991198 
L 669.065348 44.2832 
" clip-path="url(#p43a790f12c)" style="fill: none; stroke: #33b1ff; stroke-width: 2; stroke-linecap: square"/>
   </g>
   <g id="line2d_16">
    <path d="M 669.065348 136.991198 
L 669.065348 44.2832 
" clip-path="url(#p43a790f12c)" style="fill: none; stroke: #33b1ff; stroke-width: 2; stroke-linecap: square"/>
   </g>
   <g id="line2d_17">
    <path d="M 761.773347 90.637199 
L 761.773347 44.2832 
" clip-path="url(#p43a790f12c)" style="fill: none; stroke: #33b1ff; stroke-width: 2; stroke-linecap: square"/>
   </g>
   <g id="line2d_18">
    <path d="M 761.773347 90.637199 
L 761.773347 44.2832 
" clip-path="url(#p43a790f12c)" style="fill: none; stroke: #33b1ff; stroke-width: 2; stroke-linecap: square"/>
   </g>
   <g id="line2d_19">
    <path d="M 83.614336 50.309219 
L 95.666376 38.25718 
" clip-path="url(#p43a790f12c)" style="fill: none; stroke: #002d9c; stroke-width: 2; stroke-linecap: square"/>
   </g>
   <g id="line2d_20">
    <path d="M 83.614336 38.25718 
L 95.666376 50.309219 
" clip-path="url(#p43a790f12c)" style="fill: none; stroke: #002d9c; stroke-width: 2; stroke-linecap: square"/>
   </g>
   <g id="line2d_21">
    <path d="M 83.614336 189.371218 
L 95.666376 177.319178 
" clip-path="url(#p43a790f12c)" style="fill: none; stroke: #002d9c; stroke-width: 2; stroke-linecap: square"/>
   </g>
   <g id="line2d_22">
    <path d="M 83.614336 177.319178 
L 95.666376 189.371218 
" clip-path="url(#p43a790f12c)" style="fill: none; stroke: #002d9c; stroke-width: 2; stroke-linecap: square"/>
   </g>
   <g id="line2d_23">
    <path d="M 129.968336 96.663219 
L 142.020375 84.611179 
" clip-path="url(#p43a790f12c)" style="fill: none; stroke: #002d9c; stroke-width: 2; stroke-linecap: square"/>
   </g>
   <g id="line2d_24">
    <path d="M 129.968336 84.611179 
L 142.020375 96.663219 
" clip-path="url(#p43a790f12c)" style="fill: none; stroke: #002d9c; stroke-width: 2; stroke-linecap: square"/>
   </g>
   <g id="line2d_25">
    <path d="M 129.968336 143.017218 
L 142.020375 130.965178 
" clip-path="url(#p43a790f12c)" style="fill: none; stroke: #002d9c; stroke-width: 2; stroke-linecap: square"/>
   </g>
   <g id="line2d_26">
    <path d="M 129.968336 130.965178 
L 142.020375 143.017218 
" clip-path="url(#p43a790f12c)" style="fill: none; stroke: #002d9c; stroke-width: 2; stroke-linecap: square"/>
   </g>
   <g id="patch_3">
    <path d="M 120.929306 198.410247 
L 151.059405 198.410247 
L 151.059405 168.280148 
L 120.929306 168.280148 
z
" clip-path="url(#p43a790f12c)" style="fill: #fa4d56; stroke: #fa4d56; stroke-width: 1.5; stroke-linejoin: miter"/>
   </g>
   <g id="patch_4">
    <path d="M 205.525355 187.864713 
C 206.723944 187.864713 207.873604 187.388508 208.721134 186.540977 
C 209.568665 185.693447 210.04487 184.543787 210.04487 183.345198 
C 210.04487 182.146608 209.568665 180.996949 208.721134 180.149418 
C 207.873604 179.301887 206.723944 178.825683 205.525355 178.825683 
C 204.326765 178.825683 203.177106 179.301887 202.329575 180.149418 
C 201.482044 180.996949 201.00584 182.146608 201.00584 183.345198 
C 201.00584 184.543787 201.482044 185.693447 202.329575 186.540977 
C 203.177106 187.388508 204.326765 187.864713 205.525355 187.864713 
z
" clip-path="url(#p43a790f12c)" style="fill: #33b1ff; stroke: #33b1ff; stroke-width: 1.5; stroke-linejoin: miter"/>
   </g>
   <g id="patch_5">
    <path d="M 205.525355 141.510713 
C 206.723944 141.510713 207.873604 141.034509 208.721134 140.186978 
C 209.568665 139.339447 210.04487 138.189788 210.04487 136.991198 
C 210.04487 135.792609 209.568665 134.642949 208.721134 133.795419 
C 207.873604 132.947888 206.723944 132.471683 205.525355 132.471683 
C 204.326765 132.471683 203.177106 132.947888 202.329575 133.795419 
C 201.482044 134.642949 201.00584 135.792609 201.00584 136.991198 
C 201.00584 138.189788 201.482044 139.339447 202.329575 140.186978 
C 203.177106 141.034509 204.326765 141.510713 205.525355 141.510713 
z
" clip-path="url(#p43a790f12c)" style="fill: #33b1ff; stroke: #33b1ff; stroke-width: 1.5; stroke-linejoin: miter"/>
   </g>
   <g id="patch_6">
    <path d="M 259.991304 152.056248 
L 290.121403 152.056248 
L 290.121403 121.926148 
L 259.991304 121.926148 
z
" clip-path="url(#p43a790f12c)" style="fill: #fa4d56; stroke: #fa4d56; stroke-width: 1.5; stroke-linejoin: miter"/>
   </g>
   <g id="patch_7">
    <path d="M 344.587353 187.864713 
C 345.785942 187.864713 346.935602 187.388508 347.783132 186.540977 
C 348.630663 185.693447 349.106868 184.543787 349.106868 183.345198 
C 349.106868 182.146608 348.630663 180.996949 347.783132 180.149418 
C 346.935602 179.301887 345.785942 178.825683 344.587353 178.825683 
C 343.388763 178.825683 342.239104 179.301887 341.391573 180.149418 
C 340.544042 180.996949 340.067838 182.146608 340.067838 183.345198 
C 340.067838 184.543787 340.544042 185.693447 341.391573 186.540977 
C 342.239104 187.388508 343.388763 187.864713 344.587353 187.864713 
z
" clip-path="url(#p43a790f12c)" style="fill: #33b1ff; stroke: #33b1ff; stroke-width: 1.5; stroke-linejoin: miter"/>
   </g>
   <g id="patch_8">
    <path d="M 344.587353 95.156714 
C 345.785942 95.156714 346.935602 94.680509 347.783132 93.832979 
C 348.630663 92.985448 349.106868 91.835788 349.106868 90.637199 
C 349.106868 89.43861 348.630663 88.28895 347.783132 87.441419 
C 346.935602 86.593889 345.785942 86.117684 344.587353 86.117684 
C 343.388763 86.117684 342.239104 86.593889 341.391573 87.441419 
C 340.544042 88.28895 340.067838 89.43861 340.067838 90.637199 
C 340.067838 91.835788 340.544042 92.985448 341.391573 93.832979 
C 342.239104 94.680509 343.388763 95.156714 344.587353 95.156714 
z
" clip-path="url(#p43a790f12c)" style="fill: #33b1ff; stroke: #33b1ff; stroke-width: 1.5; stroke-linejoin: miter"/>
   </g>
   <g id="patch_9">
    <path d="M 437.295352 141.510713 
C 438.493941 141.510713 439.643601 141.034509 440.491131 140.186978 
C 441.338662 139.339447 441.814866 138.189788 441.814866 136.991198 
C 441.814866 135.792609 441.338662 134.642949 440.491131 133.795419 
C 439.643601 132.947888 438.493941 132.471683 437.295352 132.471683 
C 436.096762 132.471683 434.947103 132.947888 434.099572 133.795419 
C 433.252041 134.642949 432.775837 135.792609 432.775837 136.991198 
C 432.775837 138.189788 433.252041 139.339447 434.099572 140.186978 
C 434.947103 141.034509 436.096762 141.510713 437.295352 141.510713 
z
" clip-path="url(#p43a790f12c)" style="fill: #33b1ff; stroke: #33b1ff; stroke-width: 1.5; stroke-linejoin: miter"/>
   </g>
   <g id="patch_10">
    <path d="M 437.295352 95.156714 
C 438.493941 95.156714 439.643601 94.680509 440.491131 93.832979 
C 441.338662 92.985448 441.814866 91.835788 441.814866 90.637199 
C 441.814866 89.43861 441.338662 88.28895 440.491131 87.441419 
C 439.643601 86.593889 438.493941 86.117684 437.295352 86.117684 
C 436.096762 86.117684 434.947103 86.593889 434.099572 87.441419 
C 433.252041 88.28895 432.775837 89.43861 432.775837 90.637199 
C 432.775837 91.835788 433.252041 92.985448 434.099572 93.832979 
C 434.947103 94.680509 436.096762 95.156714 437.295352 95.156714 
z
" clip-path="url(#p43a790f12c)" style="fill: #33b1ff; stroke: #33b1ff; stroke-width: 1.5; stroke-linejoin: miter"/>
   </g>
   <g id="patch_11">
    <path d="M 530.00335 187.864713 
C 531.20194 187.864713 532.351599 187.388508 533.19913 186.540977 
C 534.046661 185.693447 534.522865 184.543787 534.522865 183.345198 
C 534.522865 182.146608 534.046661 180.996949 533.19913 180.149418 
C 532.351599 179.301887 531.20194 178.825683 530.00335 178.825683 
C 528.804761 178.825683 527.655101 179.301887 526.807571 180.149418 
C 525.96004 180.996949 525.483835 182.146608 525.483835 183.345198 
C 525.483835 184.543787 525.96004 185.693447 526.807571 186.540977 
C 527.655101 187.388508 528.804761 187.864713 530.00335 187.864713 
z
" clip-path="url(#p43a790f12c)" style="fill: #33b1ff; stroke: #33b1ff; stroke-width: 1.5; stroke-linejoin: miter"/>
   </g>
   <g id="patch_12">
    <path d="M 530.00335 48.802714 
C 531.20194 48.802714 532.351599 48.32651 533.19913 47.478979 
C 534.046661 46.631448 534.522865 45.481789 534.522865 44.2832 
C 534.522865 43.08461 534.046661 41.934951 533.19913 41.08742 
C 532.351599 40.239889 531.20194 39.763685 530.00335 39.763685 
C 528.804761 39.763685 527.655101 40.239889 526.807571 41.08742 
C 525.96004 41.934951 525.483835 43.08461 525.483835 44.2832 
C 525.483835 45.481789 525.96004 46.631448 526.807571 47.478979 
C 527.655101 48.32651 528.804761 48.802714 530.00335 48.802714 
z
" clip-path="url(#p43a790f12c)" style="fill: #33b1ff; stroke: #33b1ff; stroke-width: 1.5; stroke-linejoin: miter"/>
   </g>
   <g id="patch_13">
    <path d="M 584.4693 105.702249 
L 614.599399 105.702249 
L 614.599399 75.572149 
L 584.4693 75.572149 
z
" clip-path="url(#p43a790f12c)" style="fill: #fa4d56; stroke: #fa4d56; stroke-width: 1.5; stroke-linejoin: miter"/>
   </g>
   <g id="patch_14">
    <path d="M 669.065348 141.510713 
C 670.263938 141.510713 671.413597 141.034509 672.261128 140.186978 
C 673.108659 139.339447 673.584863 138.189788 673.584863 136.991198 
C 673.584863 135.792609 673.108659 134.642949 672.261128 133.795419 
C 671.413597 132.947888 670.263938 132.471683 669.065348 132.471683 
C 667.866759 132.471683 666.717099 132.947888 665.869569 133.795419 
C 665.022038 134.642949 664.545833 135.792609 664.545833 136.991198 
C 664.545833 138.189788 665.022038 139.339447 665.869569 140.186978 
C 666.717099 141.034509 667.866759 141.510713 669.065348 141.510713 
z
" clip-path="url(#p43a790f12c)" style="fill: #33b1ff; stroke: #33b1ff; stroke-width: 1.5; stroke-linejoin: miter"/>
   </g>
   <g id="patch_15">
    <path d="M 669.065348 48.802714 
C 670.263938 48.802714 671.413597 48.32651 672.261128 47.478979 
C 673.108659 46.631448 673.584863 45.481789 673.584863 44.2832 
C 673.584863 43.08461 673.108659 41.934951 672.261128 41.08742 
C 671.413597 40.239889 670.263938 39.763685 669.065348 39.763685 
C 667.866759 39.763685 666.717099 40.239889 665.869569 41.08742 
C 665.022038 41.934951 664.545833 43.08461 664.545833 44.2832 
C 664.545833 45.481789 665.022038 46.631448 665.869569 47.478979 
C 666.717099 48.32651 667.866759 48.802714 669.065348 48.802714 
z
" clip-path="url(#p43a790f12c)" style="fill: #33b1ff; stroke: #33b1ff; stroke-width: 1.5; stroke-linejoin: miter"/>
   </g>
   <g id="patch_16">
    <path d="M 761.773347 95.156714 
C 762.971937 95.156714 764.121596 94.680509 764.969127 93.832979 
C 765.816658 92.985448 766.292862 91.835788 766.292862 90.637199 
C 766.292862 89.43861 765.816658 88.28895 764.969127 87.441419 
C 764.121596 86.593889 762.971937 86.117684 761.773347 86.117684 
C 760.574758 86.117684 759.425098 86.593889 758.577568 87.441419 
C 757.730037 88.28895 757.253832 89.43861 757.253832 90.637199 
C 757.253832 91.835788 757.730037 92.985448 758.577568 93.832979 
C 759.425098 94.680509 760.574758 95.156714 761.773347 95.156714 
z
" clip-path="url(#p43a790f12c)" style="fill: #33b1ff; stroke: #33b1ff; stroke-width: 1.5; stroke-linejoin: miter"/>
   </g>
   <g id="patch_17">
    <path d="M 761.773347 48.802714 
C 762.971937 48.802714 764.121596 48.32651 764.969127 47.478979 
C 765.816658 46.631448 766.292862 45.481789 766.292862 44.2832 
C 766.292862 43.08461 765.816658 41.934951 764.969127 41.08742 
C 764.121596 40.239889 762.971937 39.763685 761.773347 39.763685 
C 760.574758 39.763685 759.425098 40.239889 758.577568 41.08742 
C 757.730037 41.934951 757.253832 43.08461 757.253832 44.2832 
C 757.253832 45.481789 757.730037 46.631448 758.577568 47.478979 
C 759.425098 48.32651 760.574758 48.802714 761.773347 48.802714 
z
" clip-path="url(#p43a790f12c)" style="fill: #33b1ff; stroke: #33b1ff; stroke-width: 1.5; stroke-linejoin: miter"/>
   </g>
   <g id="patch_18">
    <path d="M 816.239296 59.348249 
L 846.369396 59.348249 
L 846.369396 29.21815 
L 816.239296 29.21815 
z
" clip-path="url(#p43a790f12c)" style="fill: #fa4d56; stroke: #fa4d56; stroke-width: 1.5; stroke-linejoin: miter"/>
   </g>
   <g id="text_1">
    <g clip-path="url(#p43a790f12c)">
     <!-- ${q}_{0}$ -->
     <g transform="translate(37.300897 48.734176) scale(0.1625 -0.1625)">
      <defs>
       <path id="DejaVuSans-Oblique-71" d="M 2669 525 
Q 2438 222 2123 65 
Q 1809 -91 1428 -91 
Q 897 -91 595 267 
Q 294 625 294 1253 
Q 294 1759 480 2231 
Q 666 2703 1013 3078 
Q 1238 3322 1530 3453 
Q 1822 3584 2144 3584 
Q 2531 3584 2781 3431 
Q 3031 3278 3144 2969 
L 3244 3494 
L 3822 3494 
L 2888 -1319 
L 2309 -1319 
L 2669 525 
z
M 891 1338 
Q 891 875 1084 633 
Q 1278 391 1644 391 
Q 2188 391 2572 911 
Q 2956 1431 2956 2175 
Q 2956 2625 2757 2864 
Q 2559 3103 2188 3103 
Q 1916 3103 1684 2976 
Q 1453 2850 1281 2606 
Q 1100 2350 995 2006 
Q 891 1663 891 1338 
z
" transform="scale(0.015625)"/>
       <path id="DejaVuSans-30" d="M 2034 4250 
Q 1547 4250 1301 3770 
Q 1056 3291 1056 2328 
Q 1056 1369 1301 889 
Q 1547 409 2034 409 
Q 2525 409 2770 889 
Q 3016 1369 3016 2328 
Q 3016 3291 2770 3770 
Q 2525 4250 2034 4250 
z
M 2034 4750 
Q 2819 4750 3233 4129 
Q 3647 3509 3647 2328 
Q 3647 1150 3233 529 
Q 2819 -91 2034 -91 
Q 1250 -91 836 529 
Q 422 1150 422 2328 
Q 422 3509 836 4129 
Q 1250 4750 2034 4750 
z
" transform="scale(0.015625)"/>
      </defs>
      <use xlink:href="#DejaVuSans-Oblique-71"/>
      <use xlink:href="#DejaVuSans-30" transform="translate(63.476562 -16.40625) scale(0.7)"/>
     </g>
    </g>
   </g>
   <g id="text_2">
    <g clip-path="url(#p43a790f12c)">
     <!-- ${q}_{1}$ -->
     <g transform="translate(37.300897 95.088175) scale(0.1625 -0.1625)">
      <defs>
       <path id="DejaVuSans-31" d="M 794 531 
L 1825 531 
L 1825 4091 
L 703 3866 
L 703 4441 
L 1819 4666 
L 2450 4666 
L 2450 531 
L 3481 531 
L 3481 0 
L 794 0 
L 794 531 
z
" transform="scale(0.015625)"/>
      </defs>
      <use xlink:href="#DejaVuSans-Oblique-71"/>
      <use xlink:href="#DejaVuSans-31" transform="translate(63.476562 -16.40625) scale(0.7)"/>
     </g>
    </g>
   </g>
   <g id="text_3">
    <g clip-path="url(#p43a790f12c)">
     <!-- ${q}_{2}$ -->
     <g transform="translate(37.300897 141.442175) scale(0.1625 -0.1625)">
      <defs>
       <path id="DejaVuSans-32" d="M 1228 531 
L 3431 531 
L 3431 0 
L 469 0 
L 469 531 
Q 828 903 1448 1529 
Q 2069 2156 2228 2338 
Q 2531 2678 2651 2914 
Q 2772 3150 2772 3378 
Q 2772 3750 2511 3984 
Q 2250 4219 1831 4219 
Q 1534 4219 1204 4116 
Q 875 4013 500 3803 
L 500 4441 
Q 881 4594 1212 4672 
Q 1544 4750 1819 4750 
Q 2544 4750 2975 4387 
Q 3406 4025 3406 3419 
Q 3406 3131 3298 2873 
Q 3191 2616 2906 2266 
Q 2828 2175 2409 1742 
Q 1991 1309 1228 531 
z
" transform="scale(0.015625)"/>
      </defs>
      <use xlink:href="#DejaVuSans-Oblique-71"/>
      <use xlink:href="#DejaVuSans-32" transform="translate(63.476562 -16.40625) scale(0.7)"/>
     </g>
    </g>
   </g>
   <g id="text_4">
    <g clip-path="url(#p43a790f12c)">
     <!-- ${q}_{3}$ -->
     <g transform="translate(37.300897 187.796174) scale(0.1625 -0.1625)">
      <defs>
       <path id="DejaVuSans-33" d="M 2597 2516 
Q 3050 2419 3304 2112 
Q 3559 1806 3559 1356 
Q 3559 666 3084 287 
Q 2609 -91 1734 -91 
Q 1441 -91 1130 -33 
Q 819 25 488 141 
L 488 750 
Q 750 597 1062 519 
Q 1375 441 1716 441 
Q 2309 441 2620 675 
Q 2931 909 2931 1356 
Q 2931 1769 2642 2001 
Q 2353 2234 1838 2234 
L 1294 2234 
L 1294 2753 
L 1863 2753 
Q 2328 2753 2575 2939 
Q 2822 3125 2822 3475 
Q 2822 3834 2567 4026 
Q 2313 4219 1838 4219 
Q 1578 4219 1281 4162 
Q 984 4106 628 3988 
L 628 4550 
Q 988 4650 1302 4700 
Q 1616 4750 1894 4750 
Q 2613 4750 3031 4423 
Q 3450 4097 3450 3541 
Q 3450 3153 3228 2886 
Q 3006 2619 2597 2516 
z
" transform="scale(0.015625)"/>
      </defs>
      <use xlink:href="#DejaVuSans-Oblique-71"/>
      <use xlink:href="#DejaVuSans-33" transform="translate(63.476562 -16.40625) scale(0.7)"/>
     </g>
    </g>
   </g>
   <g id="text_5">
    <g clip-path="url(#p43a790f12c)">
     <!-- H -->
     <g transform="translate(131.106152 186.932385) scale(0.13 -0.13)">
      <defs>
       <path id="DejaVuSans-48" d="M 628 4666 
L 1259 4666 
L 1259 2753 
L 3553 2753 
L 3553 4666 
L 4184 4666 
L 4184 0 
L 3553 0 
L 3553 2222 
L 1259 2222 
L 1259 0 
L 628 0 
L 628 4666 
z
" transform="scale(0.015625)"/>
      </defs>
      <use xlink:href="#DejaVuSans-48"/>
     </g>
    </g>
   </g>
   <g id="text_6">
    <g clip-path="url(#p43a790f12c)">
     <!-- P ($-$$\pi$/2) -->
     <g transform="translate(211.830742 159.293848) scale(0.08 -0.08)">
      <defs>
       <path id="DejaVuSans-50" d="M 1259 4147 
L 1259 2394 
L 2053 2394 
Q 2494 2394 2734 2622 
Q 2975 2850 2975 3272 
Q 2975 3691 2734 3919 
Q 2494 4147 2053 4147 
L 1259 4147 
z
M 628 4666 
L 2053 4666 
Q 2838 4666 3239 4311 
Q 3641 3956 3641 3272 
Q 3641 2581 3239 2228 
Q 2838 1875 2053 1875 
L 1259 1875 
L 1259 0 
L 628 0 
L 628 4666 
z
" transform="scale(0.015625)"/>
       <path id="DejaVuSans-20" transform="scale(0.015625)"/>
       <path id="DejaVuSans-28" d="M 1984 4856 
Q 1566 4138 1362 3434 
Q 1159 2731 1159 2009 
Q 1159 1288 1364 580 
Q 1569 -128 1984 -844 
L 1484 -844 
Q 1016 -109 783 600 
Q 550 1309 550 2009 
Q 550 2706 781 3412 
Q 1013 4119 1484 4856 
L 1984 4856 
z
" transform="scale(0.015625)"/>
       <path id="DejaVuSans-2212" d="M 678 2272 
L 4684 2272 
L 4684 1741 
L 678 1741 
L 678 2272 
z
" transform="scale(0.015625)"/>
       <path id="DejaVuSans-Oblique-3c0" d="M 584 3500 
L 3938 3500 
L 3825 2925 
L 3384 2925 
L 2966 775 
Q 2922 550 2981 450 
Q 3038 353 3209 353 
Q 3256 353 3325 363 
Q 3397 369 3419 372 
L 3338 -44 
Q 3222 -84 3103 -103 
Q 2981 -122 2866 -122 
Q 2491 -122 2388 81 
Q 2284 288 2391 838 
L 2797 2925 
L 1506 2925 
L 938 0 
L 350 0 
L 919 2925 
L 472 2925 
L 584 3500 
z
" transform="scale(0.015625)"/>
       <path id="DejaVuSans-2f" d="M 1625 4666 
L 2156 4666 
L 531 -594 
L 0 -594 
L 1625 4666 
z
" transform="scale(0.015625)"/>
       <path id="DejaVuSans-29" d="M 513 4856 
L 1013 4856 
Q 1481 4119 1714 3412 
Q 1947 2706 1947 2009 
Q 1947 1309 1714 600 
Q 1481 -109 1013 -844 
L 513 -844 
Q 928 -128 1133 580 
Q 1338 1288 1338 2009 
Q 1338 2731 1133 3434 
Q 928 4138 513 4856 
z
" transform="scale(0.015625)"/>
      </defs>
      <use xlink:href="#DejaVuSans-50" transform="translate(0 0.125)"/>
      <use xlink:href="#DejaVuSans-20" transform="translate(60.302734 0.125)"/>
      <use xlink:href="#DejaVuSans-28" transform="translate(92.089844 0.125)"/>
      <use xlink:href="#DejaVuSans-2212" transform="translate(131.103516 0.125)"/>
      <use xlink:href="#DejaVuSans-Oblique-3c0" transform="translate(214.892578 0.125)"/>
      <use xlink:href="#DejaVuSans-2f" transform="translate(275.097656 0.125)"/>
      <use xlink:href="#DejaVuSans-32" transform="translate(305.164062 0.125)"/>
      <use xlink:href="#DejaVuSans-29" transform="translate(368.787109 0.125)"/>
     </g>
    </g>
   </g>
   <g id="text_7">
    <g clip-path="url(#p43a790f12c)">
     <!-- H -->
     <g transform="translate(270.168151 140.578386) scale(0.13 -0.13)">
      <use xlink:href="#DejaVuSans-48"/>
     </g>
    </g>
   </g>
   <g id="text_8">
    <g clip-path="url(#p43a790f12c)">
     <!-- P ($-$$\pi$/4) -->
     <g transform="translate(350.73274 159.293848) scale(0.08 -0.08)">
      <defs>
       <path id="DejaVuSans-34" d="M 2419 4116 
L 825 1625 
L 2419 1625 
L 2419 4116 
z
M 2253 4666 
L 3047 4666 
L 3047 1625 
L 3713 1625 
L 3713 1100 
L 3047 1100 
L 3047 0 
L 2419 0 
L 2419 1100 
L 313 1100 
L 313 1709 
L 2253 4666 
z
" transform="scale(0.015625)"/>
      </defs>
      <use xlink:href="#DejaVuSans-50" transform="translate(0 0.125)"/>
      <use xlink:href="#DejaVuSans-20" transform="translate(60.302734 0.125)"/>
      <use xlink:href="#DejaVuSans-28" transform="translate(92.089844 0.125)"/>
      <use xlink:href="#DejaVuSans-2212" transform="translate(131.103516 0.125)"/>
      <use xlink:href="#DejaVuSans-Oblique-3c0" transform="translate(214.892578 0.125)"/>
      <use xlink:href="#DejaVuSans-2f" transform="translate(275.097656 0.125)"/>
      <use xlink:href="#DejaVuSans-34" transform="translate(308.789062 0.125)"/>
      <use xlink:href="#DejaVuSans-29" transform="translate(372.412109 0.125)"/>
     </g>
    </g>
   </g>
   <g id="text_9">
    <g clip-path="url(#p43a790f12c)">
     <!-- P ($-$$\pi$/2) -->
     <g transform="translate(443.600739 112.939849) scale(0.08 -0.08)">
      <use xlink:href="#DejaVuSans-50" transform="translate(0 0.125)"/>
      <use xlink:href="#DejaVuSans-20" transform="translate(60.302734 0.125)"/>
      <use xlink:href="#DejaVuSans-28" transform="translate(92.089844 0.125)"/>
      <use xlink:href="#DejaVuSans-2212" transform="translate(131.103516 0.125)"/>
      <use xlink:href="#DejaVuSans-Oblique-3c0" transform="translate(214.892578 0.125)"/>
      <use xlink:href="#DejaVuSans-2f" transform="translate(275.097656 0.125)"/>
      <use xlink:href="#DejaVuSans-32" transform="translate(305.164062 0.125)"/>
      <use xlink:href="#DejaVuSans-29" transform="translate(368.787109 0.125)"/>
     </g>
    </g>
   </g>
   <g id="text_10">
    <g clip-path="url(#p43a790f12c)">
     <!-- P ($-$$\pi$/8) -->
     <g transform="translate(536.348737 159.293848) scale(0.08 -0.08)">
      <defs>
       <path id="DejaVuSans-38" d="M 2034 2216 
Q 1584 2216 1326 1975 
Q 1069 1734 1069 1313 
Q 1069 891 1326 650 
Q 1584 409 2034 409 
Q 2484 409 2743 651 
Q 3003 894 3003 1313 
Q 3003 1734 2745 1975 
Q 2488 2216 2034 2216 
z
M 1403 2484 
Q 997 2584 770 2862 
Q 544 3141 544 3541 
Q 544 4100 942 4425 
Q 1341 4750 2034 4750 
Q 2731 4750 3128 4425 
Q 3525 4100 3525 3541 
Q 3525 3141 3298 2862 
Q 3072 2584 2669 2484 
Q 3125 2378 3379 2068 
Q 3634 1759 3634 1313 
Q 3634 634 3220 271 
Q 2806 -91 2034 -91 
Q 1263 -91 848 271 
Q 434 634 434 1313 
Q 434 1759 690 2068 
Q 947 2378 1403 2484 
z
M 1172 3481 
Q 1172 3119 1398 2916 
Q 1625 2713 2034 2713 
Q 2441 2713 2670 2916 
Q 2900 3119 2900 3481 
Q 2900 3844 2670 4047 
Q 2441 4250 2034 4250 
Q 1625 4250 1398 4047 
Q 1172 3844 1172 3481 
z
" transform="scale(0.015625)"/>
      </defs>
      <use xlink:href="#DejaVuSans-50" transform="translate(0 0.125)"/>
      <use xlink:href="#DejaVuSans-20" transform="translate(60.302734 0.125)"/>
      <use xlink:href="#DejaVuSans-28" transform="translate(92.089844 0.125)"/>
      <use xlink:href="#DejaVuSans-2212" transform="translate(131.103516 0.125)"/>
      <use xlink:href="#DejaVuSans-Oblique-3c0" transform="translate(214.892578 0.125)"/>
      <use xlink:href="#DejaVuSans-2f" transform="translate(275.097656 0.125)"/>
      <use xlink:href="#DejaVuSans-38" transform="translate(303.789062 0.125)"/>
      <use xlink:href="#DejaVuSans-29" transform="translate(367.412109 0.125)"/>
     </g>
    </g>
   </g>
   <g id="text_11">
    <g clip-path="url(#p43a790f12c)">
     <!-- H -->
     <g transform="translate(594.646146 94.224386) scale(0.13 -0.13)">
      <use xlink:href="#DejaVuSans-48"/>
     </g>
    </g>
   </g>
   <g id="text_12">
    <g clip-path="url(#p43a790f12c)">
     <!-- P ($-$$\pi$/4) -->
     <g transform="translate(675.210736 112.939849) scale(0.08 -0.08)">
      <use xlink:href="#DejaVuSans-50" transform="translate(0 0.125)"/>
      <use xlink:href="#DejaVuSans-20" transform="translate(60.302734 0.125)"/>
      <use xlink:href="#DejaVuSans-28" transform="translate(92.089844 0.125)"/>
      <use xlink:href="#DejaVuSans-2212" transform="translate(131.103516 0.125)"/>
      <use xlink:href="#DejaVuSans-Oblique-3c0" transform="translate(214.892578 0.125)"/>
      <use xlink:href="#DejaVuSans-2f" transform="translate(275.097656 0.125)"/>
      <use xlink:href="#DejaVuSans-34" transform="translate(308.789062 0.125)"/>
      <use xlink:href="#DejaVuSans-29" transform="translate(372.412109 0.125)"/>
     </g>
    </g>
   </g>
   <g id="text_13">
    <g clip-path="url(#p43a790f12c)">
     <!-- P ($-$$\pi$/2) -->
     <g transform="translate(768.078734 66.585849) scale(0.08 -0.08)">
      <use xlink:href="#DejaVuSans-50" transform="translate(0 0.125)"/>
      <use xlink:href="#DejaVuSans-20" transform="translate(60.302734 0.125)"/>
      <use xlink:href="#DejaVuSans-28" transform="translate(92.089844 0.125)"/>
      <use xlink:href="#DejaVuSans-2212" transform="translate(131.103516 0.125)"/>
      <use xlink:href="#DejaVuSans-Oblique-3c0" transform="translate(214.892578 0.125)"/>
      <use xlink:href="#DejaVuSans-2f" transform="translate(275.097656 0.125)"/>
      <use xlink:href="#DejaVuSans-32" transform="translate(305.164062 0.125)"/>
      <use xlink:href="#DejaVuSans-29" transform="translate(368.787109 0.125)"/>
     </g>
    </g>
   </g>
   <g id="text_14">
    <g clip-path="url(#p43a790f12c)">
     <!-- H -->
     <g transform="translate(826.416143 47.870387) scale(0.13 -0.13)">
      <use xlink:href="#DejaVuSans-48"/>
     </g>
    </g>
   </g>
  </g>
 </g>
 <defs>
  <clipPath id="p43a790f12c">
   <rect x="7.2" y="7.2" width="854.697986" height="203.957597"/>
  </clipPath>
 </defs>
</svg>
