<?xml version="1.0" encoding="utf-8" standalone="no"?>
<!DOCTYPE svg PUBLIC "-//W3C//DTD SVG 1.1//EN"
  "http://www.w3.org/Graphics/SVG/1.1/DTD/svg11.dtd">
<svg xmlns:xlink="http://www.w3.org/1999/xlink" width="869.097986pt" height="218.357597pt" viewBox="0 0 869.097986 218.357597" xmlns="http://www.w3.org/2000/svg" version="1.1">
 <metadata>
  <rdf:RDF xmlns:dc="http://purl.org/dc/elements/1.1/" xmlns:cc="http://creativecommons.org/ns#" xmlns:rdf="http://www.w3.org/1999/02/22-rdf-syntax-ns#">
   <cc:Work>
    <dc:type rdf:resource="http://purl.org/dc/dcmitype/StillImage"/>
    <dc:date>2026-05-03T19:01:53.110844</dc:date>
    <dc:format>image/svg+xml</dc:format>
    <dc:creator>
     <cc:Agent>
      <dc:title>Matplotlib v3.10.8, https://matplotlib.org/</dc:title>
     </cc:Agent>
    </dc:creator>
   </cc:Work>
  </rdf:RDF>
 </metadata>
 <defs>
  <style type="text/css">*{stroke-linejoin: round; stroke-linecap: butt}</style>
 </defs>
 <g id="figure_1">
  <g id="patch_1">
   <path d="M 0 218.357597 
L 869.097986 218.357597 
L 869.097986 0 
L 0 0 
z
" style="fill: #ffffff"/>
  </g>
  <g id="axes_1">
   <g id="line2d_1">
    <path d="M 64.609196 44.2832 
L 857.262586 44.2832 
" clip-path="url(#p6b01e12466)" style="fill: none; stroke: #000000; stroke-width: 2; stroke-linecap: round"/>
   </g>
   <g id="line2d_2">
    <path d="M 64.609196 90.637199 
L 857.262586 90.637199 
" clip-path="url(#p6b01e12466)" style="fill: none; stroke: #000000; stroke-width: 2; stroke-linecap: round"/>
   </g>
   <g id="line2d_3">
    <path d="M 64.609196 136.991198 
L 857.262586 136.991198 
" clip-path="url(#p6b01e12466)" style="fill: none; stroke: #000000; stroke-width: 2; stroke-linecap: round"/>
   </g>
   <g id="line2d_4">
    <path d="M 64.609196 183.345198 
L 857.262586 183.345198 
" clip-path="url(#p6b01e12466)" style="fill: none; stroke: #000000; stroke-width: 2; stroke-linecap: round"/>
   </g>
   <g id="patch_2">
    <path d="M 59.973797 21.1062 
L -1098.876188 21.1062 
L -1098.876188 252.876197 
L 59.973797 252.876197 
z
" clip-path="url(#p6b01e12466)" style="fill: #ffffff; stroke: #ffffff; stroke-width: 1.5; stroke-linejoin: miter"/>
   </g>
   <g id="line2d_5">
    <path d="M 159.171355 90.637199 
L 159.171355 44.2832 
" clip-path="url(#p6b01e12466)" style="fill: none; stroke: #33b1ff; stroke-width: 2; stroke-linecap: round"/>
   </g>
   <g id="line2d_6">
    <path d="M 159.171355 90.637199 
L 159.171355 44.2832 
" clip-path="url(#p6b01e12466)" style="fill: none; stroke: #33b1ff; stroke-width: 2; stroke-linecap: round"/>
   </g>
   <g id="line2d_7">
    <path d="M 251.879354 136.991198 
L 251.879354 44.2832 
" clip-path="url(#p6b01e12466)" style="fill: none; stroke: #33b1ff; stroke-width: 2; stroke-linecap: round"/>
   </g>
   <g id="line2d_8">
    <path d="M 251.879354 136.991198 
L 251.879354 44.2832 
" clip-path="url(#p6b01e12466)" style="fill: none; stroke: #33b1ff; stroke-width: 2; stroke-linecap: round"/>
   </g>
   <g id="line2d_9">
    <path d="M 390.941352 183.345198 
L 390.941352 44.2832 
" clip-path="url(#p6b01e12466)" style="fill: none; stroke: #33b1ff; stroke-width: 2; stroke-linecap: round"/>
   </g>
   <g id="line2d_10">
    <path d="M 390.941352 183.345198 
L 390.941352 44.2832 
" clip-path="url(#p6b01e12466)" style="fill: none; stroke: #33b1ff; stroke-width: 2; stroke-linecap: round"/>
   </g>
   <g id="line2d_11">
    <path d="M 483.649351 136.991198 
L 483.649351 90.637199 
" clip-path="url(#p6b01e12466)" style="fill: none; stroke: #33b1ff; stroke-width: 2; stroke-linecap: round"/>
   </g>
   <g id="line2d_12">
    <path d="M 483.649351 136.991198 
L 483.649351 90.637199 
" clip-path="url(#p6b01e12466)" style="fill: none; stroke: #33b1ff; stroke-width: 2; stroke-linecap: round"/>
   </g>
   <g id="line2d_13">
    <path d="M 576.35735 183.345198 
L 576.35735 90.637199 
" clip-path="url(#p6b01e12466)" style="fill: none; stroke: #33b1ff; stroke-width: 2; stroke-linecap: round"/>
   </g>
   <g id="line2d_14">
    <path d="M 576.35735 183.345198 
L 576.35735 90.637199 
" clip-path="url(#p6b01e12466)" style="fill: none; stroke: #33b1ff; stroke-width: 2; stroke-linecap: round"/>
   </g>
   <g id="line2d_15">
    <path d="M 715.419348 183.345198 
L 715.419348 136.991198 
" clip-path="url(#p6b01e12466)" style="fill: none; stroke: #33b1ff; stroke-width: 2; stroke-linecap: round"/>
   </g>
   <g id="line2d_16">
    <path d="M 715.419348 183.345198 
L 715.419348 136.991198 
" clip-path="url(#p6b01e12466)" style="fill: none; stroke: #33b1ff; stroke-width: 2; stroke-linecap: round"/>
   </g>
   <g id="line2d_17">
    <path d="M 784.950347 90.637199 
L 784.950347 136.991198 
" clip-path="url(#p6b01e12466)" style="fill: none; stroke: #002d9c; stroke-width: 2; stroke-linecap: round"/>
   </g>
   <g id="line2d_18">
    <path d="M 831.304346 44.2832 
L 831.304346 183.345198 
" clip-path="url(#p6b01e12466)" style="fill: none; stroke: #002d9c; stroke-width: 2; stroke-linecap: round"/>
   </g>
   <g id="line2d_19">
    <path d="M 778.924327 96.663219 
L 790.976367 84.611179 
" clip-path="url(#p6b01e12466)" style="fill: none; stroke: #002d9c; stroke-width: 2; stroke-linecap: round"/>
   </g>
   <g id="line2d_20">
    <path d="M 778.924327 84.611179 
L 790.976367 96.663219 
" clip-path="url(#p6b01e12466)" style="fill: none; stroke: #002d9c; stroke-width: 2; stroke-linecap: round"/>
   </g>
   <g id="line2d_21">
    <path d="M 778.924327 143.017218 
L 790.976367 130.965178 
" clip-path="url(#p6b01e12466)" style="fill: none; stroke: #002d9c; stroke-width: 2; stroke-linecap: round"/>
   </g>
   <g id="line2d_22">
    <path d="M 778.924327 130.965178 
L 790.976367 143.017218 
" clip-path="url(#p6b01e12466)" style="fill: none; stroke: #002d9c; stroke-width: 2; stroke-linecap: round"/>
   </g>
   <g id="line2d_23">
    <path d="M 825.278326 50.309219 
L 837.330366 38.25718 
" clip-path="url(#p6b01e12466)" style="fill: none; stroke: #002d9c; stroke-width: 2; stroke-linecap: round"/>
   </g>
   <g id="line2d_24">
    <path d="M 825.278326 38.25718 
L 837.330366 50.309219 
" clip-path="url(#p6b01e12466)" style="fill: none; stroke: #002d9c; stroke-width: 2; stroke-linecap: round"/>
   </g>
   <g id="line2d_25">
    <path d="M 825.278326 189.371218 
L 837.330366 177.319178 
" clip-path="url(#p6b01e12466)" style="fill: none; stroke: #002d9c; stroke-width: 2; stroke-linecap: round"/>
   </g>
   <g id="line2d_26">
    <path d="M 825.278326 177.319178 
L 837.330366 189.371218 
" clip-path="url(#p6b01e12466)" style="fill: none; stroke: #002d9c; stroke-width: 2; stroke-linecap: round"/>
   </g>
   <g id="patch_3">
    <path d="M 74.575306 59.348249 
L 104.705406 59.348249 
L 104.705406 29.21815 
L 74.575306 29.21815 
z
" clip-path="url(#p6b01e12466)" style="fill: #fa4d56; stroke: #fa4d56; stroke-width: 1.5; stroke-linejoin: miter"/>
   </g>
   <g id="patch_4">
    <path d="M 159.171355 95.156714 
C 160.369945 95.156714 161.519604 94.680509 162.367135 93.832979 
C 163.214666 92.985448 163.69087 91.835788 163.69087 90.637199 
C 163.69087 89.43861 163.214666 88.28895 162.367135 87.441419 
C 161.519604 86.593889 160.369945 86.117684 159.171355 86.117684 
C 157.972766 86.117684 156.823106 86.593889 155.975576 87.441419 
C 155.128045 88.28895 154.65184 89.43861 154.65184 90.637199 
C 154.65184 91.835788 155.128045 92.985448 155.975576 93.832979 
C 156.823106 94.680509 157.972766 95.156714 159.171355 95.156714 
z
" clip-path="url(#p6b01e12466)" style="fill: #33b1ff; stroke: #33b1ff; stroke-width: 1.5; stroke-linejoin: miter"/>
   </g>
   <g id="patch_5">
    <path d="M 159.171355 48.802714 
C 160.369945 48.802714 161.519604 48.32651 162.367135 47.478979 
C 163.214666 46.631448 163.69087 45.481789 163.69087 44.2832 
C 163.69087 43.08461 163.214666 41.934951 162.367135 41.08742 
C 161.519604 40.239889 160.369945 39.763685 159.171355 39.763685 
C 157.972766 39.763685 156.823106 40.239889 155.975576 41.08742 
C 155.128045 41.934951 154.65184 43.08461 154.65184 44.2832 
C 154.65184 45.481789 155.128045 46.631448 155.975576 47.478979 
C 156.823106 48.32651 157.972766 48.802714 159.171355 48.802714 
z
" clip-path="url(#p6b01e12466)" style="fill: #33b1ff; stroke: #33b1ff; stroke-width: 1.5; stroke-linejoin: miter"/>
   </g>
   <g id="patch_6">
    <path d="M 251.879354 141.510713 
C 253.077943 141.510713 254.227603 141.034509 255.075134 140.186978 
C 255.922664 139.339447 256.398869 138.189788 256.398869 136.991198 
C 256.398869 135.792609 255.922664 134.642949 255.075134 133.795419 
C 254.227603 132.947888 253.077943 132.471683 251.879354 132.471683 
C 250.680765 132.471683 249.531105 132.947888 248.683574 133.795419 
C 247.836044 134.642949 247.359839 135.792609 247.359839 136.991198 
C 247.359839 138.189788 247.836044 139.339447 248.683574 140.186978 
C 249.531105 141.034509 250.680765 141.510713 251.879354 141.510713 
z
" clip-path="url(#p6b01e12466)" style="fill: #33b1ff; stroke: #33b1ff; stroke-width: 1.5; stroke-linejoin: miter"/>
   </g>
   <g id="patch_7">
    <path d="M 251.879354 48.802714 
C 253.077943 48.802714 254.227603 48.32651 255.075134 47.478979 
C 255.922664 46.631448 256.398869 45.481789 256.398869 44.2832 
C 256.398869 43.08461 255.922664 41.934951 255.075134 41.08742 
C 254.227603 40.239889 253.077943 39.763685 251.879354 39.763685 
C 250.680765 39.763685 249.531105 40.239889 248.683574 41.08742 
C 247.836044 41.934951 247.359839 43.08461 247.359839 44.2832 
C 247.359839 45.481789 247.836044 46.631448 248.683574 47.478979 
C 249.531105 48.32651 250.680765 48.802714 251.879354 48.802714 
z
" clip-path="url(#p6b01e12466)" style="fill: #33b1ff; stroke: #33b1ff; stroke-width: 1.5; stroke-linejoin: miter"/>
   </g>
   <g id="patch_8">
    <path d="M 306.345303 105.702249 
L 336.475403 105.702249 
L 336.475403 75.572149 
L 306.345303 75.572149 
z
" clip-path="url(#p6b01e12466)" style="fill: #fa4d56; stroke: #fa4d56; stroke-width: 1.5; stroke-linejoin: miter"/>
   </g>
   <g id="patch_9">
    <path d="M 390.941352 187.864713 
C 392.139942 187.864713 393.289601 187.388508 394.137132 186.540977 
C 394.984662 185.693447 395.460867 184.543787 395.460867 183.345198 
C 395.460867 182.146608 394.984662 180.996949 394.137132 180.149418 
C 393.289601 179.301887 392.139942 178.825683 390.941352 178.825683 
C 389.742763 178.825683 388.593103 179.301887 387.745572 180.149418 
C 386.898042 180.996949 386.421837 182.146608 386.421837 183.345198 
C 386.421837 184.543787 386.898042 185.693447 387.745572 186.540977 
C 388.593103 187.388508 389.742763 187.864713 390.941352 187.864713 
z
" clip-path="url(#p6b01e12466)" style="fill: #33b1ff; stroke: #33b1ff; stroke-width: 1.5; stroke-linejoin: miter"/>
   </g>
   <g id="patch_10">
    <path d="M 390.941352 48.802714 
C 392.139942 48.802714 393.289601 48.32651 394.137132 47.478979 
C 394.984662 46.631448 395.460867 45.481789 395.460867 44.2832 
C 395.460867 43.08461 394.984662 41.934951 394.137132 41.08742 
C 393.289601 40.239889 392.139942 39.763685 390.941352 39.763685 
C 389.742763 39.763685 388.593103 40.239889 387.745572 41.08742 
C 386.898042 41.934951 386.421837 43.08461 386.421837 44.2832 
C 386.421837 45.481789 386.898042 46.631448 387.745572 47.478979 
C 388.593103 48.32651 389.742763 48.802714 390.941352 48.802714 
z
" clip-path="url(#p6b01e12466)" style="fill: #33b1ff; stroke: #33b1ff; stroke-width: 1.5; stroke-linejoin: miter"/>
   </g>
   <g id="patch_11">
    <path d="M 483.649351 141.510713 
C 484.84794 141.510713 485.9976 141.034509 486.845131 140.186978 
C 487.692661 139.339447 488.168866 138.189788 488.168866 136.991198 
C 488.168866 135.792609 487.692661 134.642949 486.845131 133.795419 
C 485.9976 132.947888 484.84794 132.471683 483.649351 132.471683 
C 482.450762 132.471683 481.301102 132.947888 480.453571 133.795419 
C 479.606041 134.642949 479.129836 135.792609 479.129836 136.991198 
C 479.129836 138.189788 479.606041 139.339447 480.453571 140.186978 
C 481.301102 141.034509 482.450762 141.510713 483.649351 141.510713 
z
" clip-path="url(#p6b01e12466)" style="fill: #33b1ff; stroke: #33b1ff; stroke-width: 1.5; stroke-linejoin: miter"/>
   </g>
   <g id="patch_12">
    <path d="M 483.649351 95.156714 
C 484.84794 95.156714 485.9976 94.680509 486.845131 93.832979 
C 487.692661 92.985448 488.168866 91.835788 488.168866 90.637199 
C 488.168866 89.43861 487.692661 88.28895 486.845131 87.441419 
C 485.9976 86.593889 484.84794 86.117684 483.649351 86.117684 
C 482.450762 86.117684 481.301102 86.593889 480.453571 87.441419 
C 479.606041 88.28895 479.129836 89.43861 479.129836 90.637199 
C 479.129836 91.835788 479.606041 92.985448 480.453571 93.832979 
C 481.301102 94.680509 482.450762 95.156714 483.649351 95.156714 
z
" clip-path="url(#p6b01e12466)" style="fill: #33b1ff; stroke: #33b1ff; stroke-width: 1.5; stroke-linejoin: miter"/>
   </g>
   <g id="patch_13">
    <path d="M 576.35735 187.864713 
C 577.555939 187.864713 578.705599 187.388508 579.553129 186.540977 
C 580.40066 185.693447 580.876865 184.543787 580.876865 183.345198 
C 580.876865 182.146608 580.40066 180.996949 579.553129 180.149418 
C 578.705599 179.301887 577.555939 178.825683 576.35735 178.825683 
C 575.15876 178.825683 574.009101 179.301887 573.16157 180.149418 
C 572.314039 180.996949 571.837835 182.146608 571.837835 183.345198 
C 571.837835 184.543787 572.314039 185.693447 573.16157 186.540977 
C 574.009101 187.388508 575.15876 187.864713 576.35735 187.864713 
z
" clip-path="url(#p6b01e12466)" style="fill: #33b1ff; stroke: #33b1ff; stroke-width: 1.5; stroke-linejoin: miter"/>
   </g>
   <g id="patch_14">
    <path d="M 576.35735 95.156714 
C 577.555939 95.156714 578.705599 94.680509 579.553129 93.832979 
C 580.40066 92.985448 580.876865 91.835788 580.876865 90.637199 
C 580.876865 89.43861 580.40066 88.28895 579.553129 87.441419 
C 578.705599 86.593889 577.555939 86.117684 576.35735 86.117684 
C 575.15876 86.117684 574.009101 86.593889 573.16157 87.441419 
C 572.314039 88.28895 571.837835 89.43861 571.837835 90.637199 
C 571.837835 91.835788 572.314039 92.985448 573.16157 93.832979 
C 574.009101 94.680509 575.15876 95.156714 576.35735 95.156714 
z
" clip-path="url(#p6b01e12466)" style="fill: #33b1ff; stroke: #33b1ff; stroke-width: 1.5; stroke-linejoin: miter"/>
   </g>
   <g id="patch_15">
    <path d="M 630.823299 152.056248 
L 660.953399 152.056248 
L 660.953399 121.926148 
L 630.823299 121.926148 
z
" clip-path="url(#p6b01e12466)" style="fill: #fa4d56; stroke: #fa4d56; stroke-width: 1.5; stroke-linejoin: miter"/>
   </g>
   <g id="patch_16">
    <path d="M 715.419348 187.864713 
C 716.617937 187.864713 717.767597 187.388508 718.615127 186.540977 
C 719.462658 185.693447 719.938863 184.543787 719.938863 183.345198 
C 719.938863 182.146608 719.462658 180.996949 718.615127 180.149418 
C 717.767597 179.301887 716.617937 178.825683 715.419348 178.825683 
C 714.220758 178.825683 713.071099 179.301887 712.223568 180.149418 
C 711.376037 180.996949 710.899833 182.146608 710.899833 183.345198 
C 710.899833 184.543787 711.376037 185.693447 712.223568 186.540977 
C 713.071099 187.388508 714.220758 187.864713 715.419348 187.864713 
z
" clip-path="url(#p6b01e12466)" style="fill: #33b1ff; stroke: #33b1ff; stroke-width: 1.5; stroke-linejoin: miter"/>
   </g>
   <g id="patch_17">
    <path d="M 715.419348 141.510713 
C 716.617937 141.510713 717.767597 141.034509 718.615127 140.186978 
C 719.462658 139.339447 719.938863 138.189788 719.938863 136.991198 
C 719.938863 135.792609 719.462658 134.642949 718.615127 133.795419 
C 717.767597 132.947888 716.617937 132.471683 715.419348 132.471683 
C 714.220758 132.471683 713.071099 132.947888 712.223568 133.795419 
C 711.376037 134.642949 710.899833 135.792609 710.899833 136.991198 
C 710.899833 138.189788 711.376037 139.339447 712.223568 140.186978 
C 713.071099 141.034509 714.220758 141.510713 715.419348 141.510713 
z
" clip-path="url(#p6b01e12466)" style="fill: #33b1ff; stroke: #33b1ff; stroke-width: 1.5; stroke-linejoin: miter"/>
   </g>
   <g id="patch_18">
    <path d="M 769.885297 198.410247 
L 800.015397 198.410247 
L 800.015397 168.280148 
L 769.885297 168.280148 
z
" clip-path="url(#p6b01e12466)" style="fill: #fa4d56; stroke: #fa4d56; stroke-width: 1.5; stroke-linejoin: miter"/>
   </g>
   <g id="text_1">
    <g clip-path="url(#p6b01e12466)">
     <!-- ${q}_{0}$ -->
     <g transform="translate(37.300897 48.301266) scale(0.1625 -0.1625)">
      <defs>
       <path id="DejaVuSans-Oblique-71" d="M 2669 525 
Q 2438 222 2123 65 
Q 1809 -91 1428 -91 
Q 897 -91 595 267 
Q 294 625 294 1253 
Q 294 1759 480 2231 
Q 666 2703 1013 3078 
Q 1238 3322 1530 3453 
Q 1822 3584 2144 3584 
Q 2531 3584 2781 3431 
Q 3031 3278 3144 2969 
L 3244 3494 
L 3822 3494 
L 2888 -1319 
L 2309 -1319 
L 2669 525 
z
M 891 1338 
Q 891 875 1084 633 
Q 1278 391 1644 391 
Q 2188 391 2572 911 
Q 2956 1431 2956 2175 
Q 2956 2625 2757 2864 
Q 2559 3103 2188 3103 
Q 1916 3103 1684 2976 
Q 1453 2850 1281 2606 
Q 1100 2350 995 2006 
Q 891 1663 891 1338 
z
" transform="scale(0.015625)"/>
       <path id="DejaVuSans-30" d="M 2034 4250 
Q 1547 4250 1301 3770 
Q 1056 3291 1056 2328 
Q 1056 1369 1301 889 
Q 1547 409 2034 409 
Q 2525 409 2770 889 
Q 3016 1369 3016 2328 
Q 3016 3291 2770 3770 
Q 2525 4250 2034 4250 
z
M 2034 4750 
Q 2819 4750 3233 4129 
Q 3647 3509 3647 2328 
Q 3647 1150 3233 529 
Q 2819 -91 2034 -91 
Q 1250 -91 836 529 
Q 422 1150 422 2328 
Q 422 3509 836 4129 
Q 1250 4750 2034 4750 
z
" transform="scale(0.015625)"/>
      </defs>
      <use xlink:href="#DejaVuSans-Oblique-71"/>
      <use xlink:href="#DejaVuSans-30" transform="translate(63.476562 -16.40625) scale(0.7)"/>
     </g>
    </g>
   </g>
   <g id="text_2">
    <g clip-path="url(#p6b01e12466)">
     <!-- ${q}_{1}$ -->
     <g transform="translate(37.300897 94.655265) scale(0.1625 -0.1625)">
      <defs>
       <path id="DejaVuSans-31" d="M 794 531 
L 1825 531 
L 1825 4091 
L 703 3866 
L 703 4441 
L 1819 4666 
L 2450 4666 
L 2450 531 
L 3481 531 
L 3481 0 
L 794 0 
L 794 531 
z
" transform="scale(0.015625)"/>
      </defs>
      <use xlink:href="#DejaVuSans-Oblique-71"/>
      <use xlink:href="#DejaVuSans-31" transform="translate(63.476562 -16.40625) scale(0.7)"/>
     </g>
    </g>
   </g>
   <g id="text_3">
    <g clip-path="url(#p6b01e12466)">
     <!-- ${q}_{2}$ -->
     <g transform="translate(37.300897 141.009265) scale(0.1625 -0.1625)">
      <defs>
       <path id="DejaVuSans-32" d="M 1228 531 
L 3431 531 
L 3431 0 
L 469 0 
L 469 531 
Q 828 903 1448 1529 
Q 2069 2156 2228 2338 
Q 2531 2678 2651 2914 
Q 2772 3150 2772 3378 
Q 2772 3750 2511 3984 
Q 2250 4219 1831 4219 
Q 1534 4219 1204 4116 
Q 875 4013 500 3803 
L 500 4441 
Q 881 4594 1212 4672 
Q 1544 4750 1819 4750 
Q 2544 4750 2975 4387 
Q 3406 4025 3406 3419 
Q 3406 3131 3298 2873 
Q 3191 2616 2906 2266 
Q 2828 2175 2409 1742 
Q 1991 1309 1228 531 
z
" transform="scale(0.015625)"/>
      </defs>
      <use xlink:href="#DejaVuSans-Oblique-71"/>
      <use xlink:href="#DejaVuSans-32" transform="translate(63.476562 -16.40625) scale(0.7)"/>
     </g>
    </g>
   </g>
   <g id="text_4">
    <g clip-path="url(#p6b01e12466)">
     <!-- ${q}_{3}$ -->
     <g transform="translate(37.300897 187.363264) scale(0.1625 -0.1625)">
      <defs>
       <path id="DejaVuSans-33" d="M 2597 2516 
Q 3050 2419 3304 2112 
Q 3559 1806 3559 1356 
Q 3559 666 3084 287 
Q 2609 -91 1734 -91 
Q 1441 -91 1130 -33 
Q 819 25 488 141 
L 488 750 
Q 750 597 1062 519 
Q 1375 441 1716 441 
Q 2309 441 2620 675 
Q 2931 909 2931 1356 
Q 2931 1769 2642 2001 
Q 2353 2234 1838 2234 
L 1294 2234 
L 1294 2753 
L 1863 2753 
Q 2328 2753 2575 2939 
Q 2822 3125 2822 3475 
Q 2822 3834 2567 4026 
Q 2313 4219 1838 4219 
Q 1578 4219 1281 4162 
Q 984 4106 628 3988 
L 628 4550 
Q 988 4650 1302 4700 
Q 1616 4750 1894 4750 
Q 2613 4750 3031 4423 
Q 3450 4097 3450 3541 
Q 3450 3153 3228 2886 
Q 3006 2619 2597 2516 
z
" transform="scale(0.015625)"/>
      </defs>
      <use xlink:href="#DejaVuSans-Oblique-71"/>
      <use xlink:href="#DejaVuSans-33" transform="translate(63.476562 -16.40625) scale(0.7)"/>
     </g>
    </g>
   </g>
   <g id="text_5">
    <g clip-path="url(#p6b01e12466)">
     <!-- H -->
     <g transform="translate(84.946137 47.643903) scale(0.13 -0.13)">
      <defs>
       <path id="ArialMT-48" d="M 513 0 
L 513 4581 
L 1119 4581 
L 1119 2700 
L 3500 2700 
L 3500 4581 
L 4106 4581 
L 4106 0 
L 3500 0 
L 3500 2159 
L 1119 2159 
L 1119 0 
L 513 0 
z
" transform="scale(0.015625)"/>
      </defs>
      <use xlink:href="#ArialMT-48"/>
     </g>
    </g>
   </g>
   <g id="text_6">
    <g clip-path="url(#p6b01e12466)">
     <!-- P ($\pi$/2) -->
     <g transform="translate(165.976495 66.347099) scale(0.08 -0.08)">
      <defs>
       <path id="ArialMT-50" d="M 494 0 
L 494 4581 
L 2222 4581 
Q 2678 4581 2919 4538 
Q 3256 4481 3484 4323 
Q 3713 4166 3852 3881 
Q 3991 3597 3991 3256 
Q 3991 2672 3619 2267 
Q 3247 1863 2275 1863 
L 1100 1863 
L 1100 0 
L 494 0 
z
M 1100 2403 
L 2284 2403 
Q 2872 2403 3119 2622 
Q 3366 2841 3366 3238 
Q 3366 3525 3220 3729 
Q 3075 3934 2838 4000 
Q 2684 4041 2272 4041 
L 1100 4041 
L 1100 2403 
z
" transform="scale(0.015625)"/>
       <path id="ArialMT-20" transform="scale(0.015625)"/>
       <path id="ArialMT-28" d="M 1497 -1347 
Q 1031 -759 709 28 
Q 388 816 388 1659 
Q 388 2403 628 3084 
Q 909 3875 1497 4659 
L 1900 4659 
Q 1522 4009 1400 3731 
Q 1209 3300 1100 2831 
Q 966 2247 966 1656 
Q 966 153 1900 -1347 
L 1497 -1347 
z
" transform="scale(0.015625)"/>
       <path id="DejaVuSans-Oblique-3c0" d="M 584 3500 
L 3938 3500 
L 3825 2925 
L 3384 2925 
L 2966 775 
Q 2922 550 2981 450 
Q 3038 353 3209 353 
Q 3256 353 3325 363 
Q 3397 369 3419 372 
L 3338 -44 
Q 3222 -84 3103 -103 
Q 2981 -122 2866 -122 
Q 2491 -122 2388 81 
Q 2284 288 2391 838 
L 2797 2925 
L 1506 2925 
L 938 0 
L 350 0 
L 919 2925 
L 472 2925 
L 584 3500 
z
" transform="scale(0.015625)"/>
       <path id="ArialMT-2f" d="M 0 -78 
L 1328 4659 
L 1778 4659 
L 453 -78 
L 0 -78 
z
" transform="scale(0.015625)"/>
       <path id="ArialMT-32" d="M 3222 541 
L 3222 0 
L 194 0 
Q 188 203 259 391 
Q 375 700 629 1000 
Q 884 1300 1366 1694 
Q 2113 2306 2375 2664 
Q 2638 3022 2638 3341 
Q 2638 3675 2398 3904 
Q 2159 4134 1775 4134 
Q 1369 4134 1125 3890 
Q 881 3647 878 3216 
L 300 3275 
Q 359 3922 746 4261 
Q 1134 4600 1788 4600 
Q 2447 4600 2831 4234 
Q 3216 3869 3216 3328 
Q 3216 3053 3103 2787 
Q 2991 2522 2730 2228 
Q 2469 1934 1863 1422 
Q 1356 997 1212 845 
Q 1069 694 975 541 
L 3222 541 
z
" transform="scale(0.015625)"/>
       <path id="ArialMT-29" d="M 791 -1347 
L 388 -1347 
Q 1322 153 1322 1656 
Q 1322 2244 1188 2822 
Q 1081 3291 891 3722 
Q 769 4003 388 4659 
L 791 4659 
Q 1378 3875 1659 3084 
Q 1900 2403 1900 1659 
Q 1900 816 1576 28 
Q 1253 -759 791 -1347 
z
" transform="scale(0.015625)"/>
      </defs>
      <use xlink:href="#ArialMT-50" transform="translate(0 0.203125)"/>
      <use xlink:href="#ArialMT-20" transform="translate(66.699219 0.203125)"/>
      <use xlink:href="#ArialMT-28" transform="translate(94.482422 0.203125)"/>
      <use xlink:href="#DejaVuSans-Oblique-3c0" transform="translate(127.783203 0.203125)"/>
      <use xlink:href="#ArialMT-2f" transform="translate(187.988281 0.203125)"/>
      <use xlink:href="#ArialMT-32" transform="translate(215.771484 0.203125)"/>
      <use xlink:href="#ArialMT-29" transform="translate(271.386719 0.203125)"/>
     </g>
    </g>
   </g>
   <g id="text_7">
    <g clip-path="url(#p6b01e12466)">
     <!-- P ($\pi$/4) -->
     <g transform="translate(258.684494 112.701099) scale(0.08 -0.08)">
      <defs>
       <path id="ArialMT-34" d="M 2069 0 
L 2069 1097 
L 81 1097 
L 81 1613 
L 2172 4581 
L 2631 4581 
L 2631 1613 
L 3250 1613 
L 3250 1097 
L 2631 1097 
L 2631 0 
L 2069 0 
z
M 2069 1613 
L 2069 3678 
L 634 1613 
L 2069 1613 
z
" transform="scale(0.015625)"/>
      </defs>
      <use xlink:href="#ArialMT-50" transform="translate(0 0.203125)"/>
      <use xlink:href="#ArialMT-20" transform="translate(66.699219 0.203125)"/>
      <use xlink:href="#ArialMT-28" transform="translate(94.482422 0.203125)"/>
      <use xlink:href="#DejaVuSans-Oblique-3c0" transform="translate(127.783203 0.203125)"/>
      <use xlink:href="#ArialMT-2f" transform="translate(187.988281 0.203125)"/>
      <use xlink:href="#ArialMT-34" transform="translate(215.771484 0.203125)"/>
      <use xlink:href="#ArialMT-29" transform="translate(271.386719 0.203125)"/>
     </g>
    </g>
   </g>
   <g id="text_8">
    <g clip-path="url(#p6b01e12466)">
     <!-- H -->
     <g transform="translate(316.716134 93.997902) scale(0.13 -0.13)">
      <use xlink:href="#ArialMT-48"/>
     </g>
    </g>
   </g>
   <g id="text_9">
    <g clip-path="url(#p6b01e12466)">
     <!-- P ($\pi$/8) -->
     <g transform="translate(397.746492 159.055098) scale(0.08 -0.08)">
      <defs>
       <path id="ArialMT-38" d="M 1131 2484 
Q 781 2613 612 2850 
Q 444 3088 444 3419 
Q 444 3919 803 4259 
Q 1163 4600 1759 4600 
Q 2359 4600 2725 4251 
Q 3091 3903 3091 3403 
Q 3091 3084 2923 2848 
Q 2756 2613 2416 2484 
Q 2838 2347 3058 2040 
Q 3278 1734 3278 1309 
Q 3278 722 2862 322 
Q 2447 -78 1769 -78 
Q 1091 -78 675 323 
Q 259 725 259 1325 
Q 259 1772 486 2073 
Q 713 2375 1131 2484 
z
M 1019 3438 
Q 1019 3113 1228 2906 
Q 1438 2700 1772 2700 
Q 2097 2700 2305 2904 
Q 2513 3109 2513 3406 
Q 2513 3716 2298 3927 
Q 2084 4138 1766 4138 
Q 1444 4138 1231 3931 
Q 1019 3725 1019 3438 
z
M 838 1322 
Q 838 1081 952 856 
Q 1066 631 1291 507 
Q 1516 384 1775 384 
Q 2178 384 2440 643 
Q 2703 903 2703 1303 
Q 2703 1709 2433 1975 
Q 2163 2241 1756 2241 
Q 1359 2241 1098 1978 
Q 838 1716 838 1322 
z
" transform="scale(0.015625)"/>
      </defs>
      <use xlink:href="#ArialMT-50" transform="translate(0 0.203125)"/>
      <use xlink:href="#ArialMT-20" transform="translate(66.699219 0.203125)"/>
      <use xlink:href="#ArialMT-28" transform="translate(94.482422 0.203125)"/>
      <use xlink:href="#DejaVuSans-Oblique-3c0" transform="translate(127.783203 0.203125)"/>
      <use xlink:href="#ArialMT-2f" transform="translate(187.988281 0.203125)"/>
      <use xlink:href="#ArialMT-38" transform="translate(215.771484 0.203125)"/>
      <use xlink:href="#ArialMT-29" transform="translate(271.386719 0.203125)"/>
     </g>
    </g>
   </g>
   <g id="text_10">
    <g clip-path="url(#p6b01e12466)">
     <!-- P ($\pi$/2) -->
     <g transform="translate(490.454491 112.701099) scale(0.08 -0.08)">
      <use xlink:href="#ArialMT-50" transform="translate(0 0.203125)"/>
      <use xlink:href="#ArialMT-20" transform="translate(66.699219 0.203125)"/>
      <use xlink:href="#ArialMT-28" transform="translate(94.482422 0.203125)"/>
      <use xlink:href="#DejaVuSans-Oblique-3c0" transform="translate(127.783203 0.203125)"/>
      <use xlink:href="#ArialMT-2f" transform="translate(187.988281 0.203125)"/>
      <use xlink:href="#ArialMT-32" transform="translate(215.771484 0.203125)"/>
      <use xlink:href="#ArialMT-29" transform="translate(271.386719 0.203125)"/>
     </g>
    </g>
   </g>
   <g id="text_11">
    <g clip-path="url(#p6b01e12466)">
     <!-- P ($\pi$/4) -->
     <g transform="translate(583.162489 159.055098) scale(0.08 -0.08)">
      <use xlink:href="#ArialMT-50" transform="translate(0 0.203125)"/>
      <use xlink:href="#ArialMT-20" transform="translate(66.699219 0.203125)"/>
      <use xlink:href="#ArialMT-28" transform="translate(94.482422 0.203125)"/>
      <use xlink:href="#DejaVuSans-Oblique-3c0" transform="translate(127.783203 0.203125)"/>
      <use xlink:href="#ArialMT-2f" transform="translate(187.988281 0.203125)"/>
      <use xlink:href="#ArialMT-34" transform="translate(215.771484 0.203125)"/>
      <use xlink:href="#ArialMT-29" transform="translate(271.386719 0.203125)"/>
     </g>
    </g>
   </g>
   <g id="text_12">
    <g clip-path="url(#p6b01e12466)">
     <!-- H -->
     <g transform="translate(641.19413 140.351901) scale(0.13 -0.13)">
      <use xlink:href="#ArialMT-48"/>
     </g>
    </g>
   </g>
   <g id="text_13">
    <g clip-path="url(#p6b01e12466)">
     <!-- P ($\pi$/2) -->
     <g transform="translate(722.224488 159.055098) scale(0.08 -0.08)">
      <use xlink:href="#ArialMT-50" transform="translate(0 0.203125)"/>
      <use xlink:href="#ArialMT-20" transform="translate(66.699219 0.203125)"/>
      <use xlink:href="#ArialMT-28" transform="translate(94.482422 0.203125)"/>
      <use xlink:href="#DejaVuSans-Oblique-3c0" transform="translate(127.783203 0.203125)"/>
      <use xlink:href="#ArialMT-2f" transform="translate(187.988281 0.203125)"/>
      <use xlink:href="#ArialMT-32" transform="translate(215.771484 0.203125)"/>
      <use xlink:href="#ArialMT-29" transform="translate(271.386719 0.203125)"/>
     </g>
    </g>
   </g>
   <g id="text_14">
    <g clip-path="url(#p6b01e12466)">
     <!-- H -->
     <g transform="translate(780.256128 186.705901) scale(0.13 -0.13)">
      <use xlink:href="#ArialMT-48"/>
     </g>
    </g>
   </g>
  </g>
 </g>
 <defs>
  <clipPath id="p6b01e12466">
   <rect x="7.2" y="7.2" width="854.697986" height="203.957597"/>
  </clipPath>
 </defs>
</svg>
